<?xml version="1.0" standalone="no"?>
<!DOCTYPE svg PUBLIC "-//W3C//DTD SVG 1.1//EN" "http://www.w3.org/Graphics/SVG/1.1/DTD/svg11.dtd" >
<svg xmlns="http://www.w3.org/2000/svg" xmlns:xlink="http://www.w3.org/1999/xlink" version="1.1">
<metadata>
Created by FontForge 20170731 at Fri Dec 27 11:21:41 2019
 By Aleksey,,,
</metadata>
<defs>
<font id="RyuminPro-Bold-AlphaNum" horiz-adv-x="1000" vert-adv-y="1000" >
  <font-face 
    font-family="RyuminPro-Bold-AlphaNum"
    font-weight="700"
    font-stretch="normal"
    units-per-em="1000"
    panose-1="2 0 8 3 0 0 0 0 0 0"
    ascent="800"
    descent="-200"
    bbox="10 -104 990 864"
    underline-thickness="50"
    underline-position="-200"
    unicode-range="U+2160-32BF"
  />
<missing-glyph horiz-adv-x="364" 
d="M33 0v666h265v-666h-265zM66 33h199v600h-199v-600z" />
    <glyph glyph-name=".notdef" horiz-adv-x="364" 
d="M33 0v666h265v-666h-265zM66 33h199v600h-199v-600z" />
    <glyph glyph-name=".null" horiz-adv-x="0" vert-adv-y="0" 
 />
    <glyph glyph-name="nonmarkingreturn" horiz-adv-x="333" 
 />
    <glyph glyph-name="uni2160" unicode="&#x2160;" 
d="M667 0h-334v32h38q38 0 54.5 16.5t16.5 52.5v527q0 35 -16 52t-55 17h-38v33h334v-33h-38q-42 0 -56.5 -17.5t-14.5 -51.5v-527q0 -36 16.5 -52.5t54.5 -16.5h38v-32z" />
    <glyph glyph-name="uni2161" unicode="&#x2161;" 
d="M768 0h-536v32h26q32 0 44.5 13t12.5 51v538q0 37 -12 50t-45 13h-26v33h536v-33h-26q-32 0 -44.5 -12.5t-12.5 -50.5v-538q0 -37 12 -50.5t45 -13.5h26v-32zM579 96v538q0 37 -12 50t-45 13h-44q-32 0 -44.5 -13t-12.5 -50v-538q0 -38 12.5 -51t44.5 -13h44
q32 0 44.5 12.5t12.5 51.5z" />
    <glyph glyph-name="uni2162" unicode="&#x2162;" 
d="M834 0h-668v32q23 0 33 1t21 7t15 19t4 37v538q0 23 -4 36.5t-15 19t-21 6.5t-33 1v33h668v-33q-23 0 -33 -1t-21 -6.5t-15 -19t-4 -36.5v-538q0 -23 4 -36.5t15 -19.5t21.5 -7t32.5 -1v-32zM658 96v538q0 38 -12.5 50.5t-44.5 12.5q-28 0 -39.5 -14t-11.5 -49v-538
q0 -38 12.5 -51t44.5 -13q30 0 40.5 15t10.5 49zM450 96v538q0 38 -12.5 50.5t-45.5 12.5q-28 0 -39 -14.5t-11 -48.5v-538q0 -38 12.5 -51t44.5 -13q29 0 40 15t11 49z" />
    <glyph glyph-name="uni2163" unicode="&#x2163;" 
d="M883 697q-57 0 -78 -73l-186 -643h-30l-192 660q-16 55 -45 55q-12 0 -21 -13t-9 -34v-553q0 -37 10.5 -50.5t41.5 -13.5h24v-32h-259v32h23q31 0 42 13.5t11 50.5v538q0 37 -11 50t-45 13h-20v33h436v-33h-20q-52 0 -52 -31q0 -12 3 -24l136 -466l121 418q10 37 10 53
q0 50 -49 50h-24v33h183v-33z" />
    <glyph glyph-name="uni2164" unicode="&#x2164;" 
d="M386 620l152 -446l156 437q12 35 12 48q0 16 -14 27t-32 11h-52v33h233v-33h-25q-58 0 -88 -86l-225 -630h-23l-215 638q-11 33 -33 55.5t-53 22.5h-20v33h309v-33h-39q-48 0 -48 -42q0 -20 5 -35z" />
    <glyph glyph-name="uni2165" unicode="&#x2165;" 
d="M867 0h-254v32q21 0 31 1t22 7t16.5 20.5t4.5 39.5v547q0 49 -30 49q-14 0 -22.5 -11.5t-17.5 -42.5l-196 -661h-35l-173 643q-12 46 -30.5 59.5t-50.5 13.5v33h241v-33h-22q-39 0 -39 -33q0 -4 5 -24l126 -470l138 464q5 16 5 30q0 33 -37 33h-17v33h335v-33
q-21 0 -30.5 -1t-21.5 -7t-16.5 -20.5t-4.5 -38.5v-530q0 -25 4.5 -39.5t16.5 -20.5t21.5 -7t30.5 -1v-32z" />
    <glyph glyph-name="uni2166" unicode="&#x2166;" 
d="M874 0h-362v32q12 0 18.5 1t15 5t12 15t3.5 29v598q0 17 -16 17t-22 -28l-151 -688h-37l-147 657q-5 21 -12 34t-17 18t-16.5 6t-17.5 1v33h215v-33q-13 0 -20.5 -1t-16.5 -9t-9 -24q0 -12 5 -33l91 -414l89 404q5 20 5 37q0 16 -9 28t-26 12h-23v33h448v-33
q-15 0 -23.5 -1.5t-17.5 -13.5t-9 -35v-565q0 -18 4 -29t12.5 -15t15 -5t18.5 -1v-32zM721 66v597q0 34 -28 34t-28 -34v-597q0 -34 29 -34q27 0 27 34z" />
    <glyph glyph-name="uni2167" unicode="&#x2167;" 
d="M912 0h-462v32q9 1 14 2t13.5 5t13 15t4.5 28v586q0 24 -19 24t-32 -55l-130 -656h-34l-129 659q-7 36 -18.5 46t-34.5 11v33h208v-33h-21q-35 0 -35 -28q0 -12 3 -24l79 -404l78 389q4 20 4 34q0 33 -30 33h-19v33h547v-33q-9 -1 -14 -2t-13.5 -5t-13 -15t-4.5 -28v-565
q0 -47 45 -50v-32zM770 60v609q0 28 -22 28q-21 0 -21 -28v-609q0 -28 22 -28q21 0 21 28zM635 60v609q0 28 -22 28t-22 -28v-609q0 -28 22 -28t22 28z" />
    <glyph glyph-name="uni2168" unicode="&#x2168;" 
d="M872 0h-236v32h17q38 0 38 25q0 12 -7 26l-103 213l-102 -188q-16 -30 -16 -48q0 -28 29 -28h21v-32h-385v32h25q27 0 38.5 13.5t11.5 40.5v558q0 53 -46 53h-29v33h443v-33q-20 0 -28 -1t-14.5 -6.5t-6.5 -17.5q0 -10 6 -22l98 -204l105 194q10 19 10 30q0 13 -7.5 20
t-31.5 7h-19v33h189v-33h-21q-51 0 -89 -67l-119 -219l156 -326q12 -25 24.5 -37t21.5 -14t27 -2v-32zM564 332l-147 306q-28 58 -65 58q-17 0 -29.5 -12.5t-12.5 -37.5v-563q0 -51 46 -51q45 0 77 58z" />
    <glyph glyph-name="uni2169" unicode="&#x2169;" 
d="M443 611l81 -159l113 164q18 26 18 46q0 17 -13 26t-32 9h-32v33h241v-33h-17q-70 0 -126 -81l-136 -196l156 -307q23 -46 50.5 -63.5t68.5 -17.5h29v-32h-344v32h37q19 0 30 9.5t11 24.5q0 13 -9 31l-107 210l-136 -198q-16 -25 -16 -44q0 -33 45 -33h50v-32h-249v32h23
q31 0 54 16.5t54 60.5l159 230l-140 274q-26 50 -48 67t-53 17h-23v33h322v-33h-37q-18 0 -30.5 -10t-12.5 -25q0 -13 19 -51z" />
    <glyph glyph-name="uni216A" unicode="&#x216a;" 
d="M872 0h-444v32q20 0 28.5 1t15 6.5t6.5 17.5q0 9 -6 23l-98 203l-104 -193q-11 -21 -11 -32q0 -26 40 -26h18v-32h-189v32h21q53 0 90 68l118 219l-156 326q-12 25 -24.5 36.5t-21.5 13.5t-27 2v33h236v-33h-16q-40 0 -40 -25q0 -7 9 -25l102 -214l102 189q16 27 16 48
q0 27 -29 27h-21v33h385v-33h-25q-28 0 -40 -12t-12 -41v-558q0 -54 48 -54h29v-32zM692 83v563q0 51 -46 51q-48 0 -78 -57l-132 -243l147 -306q28 -58 66 -58q43 0 43 50z" />
    <glyph glyph-name="uni216B" unicode="&#x216b;" 
d="M902 0h-524v32q17 0 24.5 1t14 6.5t6.5 17.5q0 9 -6 23l-87 202l-94 -192q-9 -18 -9 -31t7 -19t15.5 -7t27.5 -1v-32h-170v32h18q48 0 81 68l107 222l-140 323q-10 25 -21.5 36.5t-20 13.5t-24.5 2v33h213v-33q-18 0 -26.5 -1t-16 -6.5t-7.5 -17.5q0 -10 7 -25l91 -212
l92 187q14 28 14 47q0 28 -26 28h-18v33h472v-33q-15 0 -23.5 -1.5t-17.5 -13.5t-9 -35v-565q0 -18 4 -29t12.5 -15t15 -5t18.5 -1v-32zM750 66v597q0 34 -28 34q-29 0 -29 -34v-594q0 -37 29 -37q28 0 28 34zM590 55v592q0 50 -31 50q-25 0 -54 -57l-119 -245l135 -312
q22 -51 47 -51q8 0 15 6t7 17z" />
    <glyph glyph-name="uni2170" unicode="&#x2170;" 
d="M362 0v32h36q24 0 37 15t13 39v296q0 50 -36 50q-18 0 -35 -6l-6 25l181 41v-406q0 -54 54 -54h31v-32h-275zM500 748q29 0 50 -20.5t21 -50.5q0 -29 -21 -50t-50 -21t-50 21t-21 50q0 30 21 50.5t50 20.5z" />
    <glyph glyph-name="uni2171" unicode="&#x2171;" 
d="M221 453l182 39v-400q0 -60 54 -60h32v-32h-273v32h32q54 0 54 60v297q0 20 -12 33t-28 13q-8 0 -35 -6zM349 748q29 0 50 -20.5t21 -50.5q0 -29 -21 -50t-50 -21t-50 21t-21 50q0 30 21 50.5t50 20.5zM516 453l182 39v-400q0 -60 54 -60h32v-32h-273v32h32q54 0 54 60
v297q0 20 -12 33t-28 13q-8 0 -35 -6zM644 748q29 0 50 -20.5t21 -50.5q0 -29 -21 -50t-50 -21t-50 21t-21 50q0 30 21 50.5t50 20.5z" />
    <glyph glyph-name="uni2172" unicode="&#x2172;" 
d="M82 453l182 39v-400q0 -60 54 -60h32v-32h-272v32h31q55 0 55 60v297q0 20 -12.5 33t-28.5 13q-8 0 -35 -6zM210 748q29 0 50 -20.5t21 -50.5q0 -29 -20.5 -50t-50.5 -21q-29 0 -50 21t-21 50q0 30 21 50.5t50 20.5zM368 453l182 39v-400q0 -60 54 -60h32v-32h-272v32h32
q54 0 54 60v297q0 20 -12.5 33t-28.5 13q-7 0 -34 -6zM497 748q29 0 50 -20.5t21 -50.5q0 -29 -21 -50t-50 -21q-30 0 -50.5 21t-20.5 50q0 30 21 50.5t50 20.5zM655 453l181 39v-400q0 -60 55 -60h31v-32h-272v32h32q54 0 54 60v297q0 20 -12 33t-29 13q-7 0 -34 -6z
M783 748q29 0 50 -20.5t21 -50.5q0 -29 -21 -50t-50 -21t-50 21t-21 50q0 30 21 50.5t50 20.5z" />
    <glyph glyph-name="uni2173" unicode="&#x2173;" 
d="M560 382l116 -257l103 256q9 24 9 31q0 28 -39 28h-30v33h174v-33q-18 0 -28 -1.5t-24.5 -14t-24.5 -37.5l-162 -406h-27l-184 410q-10 23 -23 34.5t-21 13t-23 1.5v33h223v-33q-46 0 -46 -30q0 -12 7 -28zM110 453l181 39v-400q0 -60 55 -60h31v-32h-272v32h32
q54 0 54 60v297q0 20 -12 33t-29 13q-7 0 -34 -6zM238 748q29 0 50 -20.5t21 -50.5q0 -29 -21 -50t-50 -21t-50 21t-21 50q0 30 21 50.5t50 20.5z" />
    <glyph glyph-name="uni2174" unicode="&#x2174;" 
d="M760 440h-20q-38 0 -59 -50l-161 -409h-28l-178 397q-13 29 -26.5 43.5t-22 16.5t-25.5 2v33h227v-33q-16 0 -24 -1t-16 -7.5t-8 -19.5q0 -14 10 -34l113 -251l105 263q4 12 4 25q0 7 -1.5 11.5t-9.5 9t-23 4.5h-34v33h177v-33z" />
    <glyph glyph-name="uni2175" unicode="&#x2175;" 
d="M635 453l182 39v-400q0 -60 54 -60h32v-32h-272v32h31q55 0 55 60v297q0 20 -12.5 33t-28.5 13q-7 0 -34 -6zM764 748q29 0 49.5 -20.5t21.5 -50.5q0 -29 -21 -50t-50 -21q-30 0 -51 21t-21 50q0 30 21 50.5t51 20.5zM276 382l116 -257l103 256q9 24 9 31q0 28 -39 28
h-30v33h175v-33q-18 0 -28.5 -1.5t-25 -14t-24.5 -37.5l-162 -406h-27l-184 410q-10 23 -23 34.5t-21 13t-23 1.5v33h224v-33q-47 0 -47 -30q0 -12 7 -28z" />
    <glyph glyph-name="uni2176" unicode="&#x2176;" 
d="M525 456l153 36v-407q0 -18 4.5 -29.5t14 -16t15 -5.5t14.5 -2v-32h-206v32q25 1 39 15t16 23.5t2 17.5v298q0 46 -47 46zM188 385l114 -262l90 238q10 25 10 47q0 32 -33 32h-17v33h142v-33q-38 -3 -58 -55l-153 -404h-27l-175 405q-9 22 -18 34t-13.5 15t-12.5 5v33
h185v-33q-42 0 -42 -28q0 -8 8 -27zM624 748q29 0 50 -20.5t21 -50.5q0 -29 -21 -50t-50 -21t-50 21t-21 50q0 30 21 50.5t50 20.5zM759 456l152 36v-407q0 -23 10 -36t18 -14.5t21 -2.5v-32h-206v32q25 1 39 15t16 23.5t2 17.5v298q0 46 -47 46zM858 748q29 0 50 -20.5
t21 -50.5q0 -29 -21 -50t-50 -21q-30 0 -50.5 21t-20.5 50q0 30 21 50.5t50 20.5z" />
    <glyph glyph-name="uni2177" unicode="&#x2177;" 
d="M392 0v33q44 4 44 51v302q0 20 -11 33t-31 13l-2 26l144 34v-411q0 -17 10 -31.5t27 -17.5v-32h-181zM337 385l-122 -404h-33l-116 411q-7 23 -14 34.5t-11 13t-12 0.5v33h169v-33q-38 0 -38 -24q0 -6 7 -30l64 -238l71 232q8 24 8 36q0 16 -10.5 20t-29.5 4v33h112v-33
q-8 0 -13.5 -2t-15 -15.5t-16.5 -37.5zM482 748q30 0 51 -20.5t21 -50.5q0 -29 -21 -50t-51 -21q-29 0 -50 21t-21 50q0 30 21 50.5t50 20.5zM587 0v33q44 4 44 51v302q0 20 -11 33t-31 13l-2 26l144 34v-411q0 -17 10 -31.5t27 -17.5v-32h-181zM678 748q29 0 50 -20.5
t21 -50.5q0 -29 -21 -50t-50 -21q-30 0 -50.5 21t-20.5 50q0 30 21 50.5t50 20.5zM782 0v33q44 4 44 51v302q0 20 -11 33t-31 13l-2 26l145 34v-411q0 -17 9.5 -31.5t26.5 -17.5v-32h-181zM873 748q29 0 50 -20.5t21 -50.5q0 -29 -21 -50t-50 -21t-50 21t-21 50
q0 30 21 50.5t50 20.5z" />
    <glyph glyph-name="uni2178" unicode="&#x2178;" 
d="M507 91l93 124l-116 168q-19 27 -36 40t-25.5 15t-23.5 2v33h249v-33q-16 0 -24 -1t-16 -7.5t-8 -19.5q0 -18 8 -26l58 -83l59 80q11 17 11 33t-13 20t-39 4v33h201v-33q-16 0 -23.5 -0.5t-23 -4.5t-27.5 -11.5t-28.5 -23t-32.5 -37.5l-65 -88l128 -186q17 -23 42.5 -40
t51.5 -17v-32h-265v32h21q12 0 23 7.5t11 21.5q0 13 -9 25l-69 101l-67 -90q-11 -17 -11 -32t8.5 -23t16.5 -9t23 -1v-32h-203v32h22q25 0 55 20t44 39zM104 453l181 39v-400q0 -60 55 -60h31v-32h-272v32h32q54 0 54 60v297q0 20 -12 33t-29 13q-7 0 -34 -6zM232 748
q29 0 50 -20.5t21 -50.5q0 -29 -21 -50t-50 -21t-50 21t-21 50q0 30 21 50.5t50 20.5z" />
    <glyph glyph-name="uni2179" unicode="&#x2179;" 
d="M760 0h-264v32h21q13 0 23.5 7.5t10.5 20.5q0 12 -9 26l-69 101l-67 -90q-11 -16 -11 -31q0 -23 12.5 -28.5t35.5 -5.5v-32h-203v32h22q23 0 53.5 19.5t45.5 39.5l93 124l-117 168q-18 27 -35 40t-25.5 15t-23.5 2v33h248v-33q-15 0 -23 -1t-16 -7t-8 -19q0 -16 8 -27
l57 -83l60 80q11 15 11 33q0 16 -13 20t-39 4v33h201v-33q-19 0 -30 -1.5t-29.5 -8t-37 -23.5t-38.5 -44l-65 -88l128 -186q42 -57 93 -57v-32z" />
    <glyph glyph-name="uni217A" unicode="&#x217a;" 
d="M212 91l93 124l-116 168q-19 27 -36 40t-25.5 15t-23.5 2v33h249v-33q-16 0 -24 -1t-16 -7.5t-8 -19.5q0 -17 9 -26l57 -83l59 80q11 17 11 33t-13 20t-38 4v33h201v-33q-16 0 -24 -0.5t-23.5 -4.5t-27.5 -11.5t-28.5 -23t-32.5 -37.5l-65 -88l128 -186q17 -23 42.5 -40
t51.5 -17v-32h-265v32h21q12 0 23 7.5t11 21.5q0 13 -9 25l-69 101l-67 -90q-11 -17 -11 -32t8.5 -23t16.5 -9t23 -1v-32h-203v32h22q25 0 55 20t44 39zM641 453l182 39v-400q0 -60 54 -60h32v-32h-272v32h31q55 0 55 60v297q0 20 -12.5 33t-28.5 13q-7 0 -34 -6zM770 748
q29 0 50 -20.5t21 -50.5q0 -29 -21 -50t-50 -21q-30 0 -50.5 21t-20.5 50q0 30 21 50.5t50 20.5z" />
    <glyph glyph-name="uni217B" unicode="&#x217b;" 
d="M241 382l51 -83l67 84q11 15 11 30q0 27 -42 27v33h162v-33q-13 0 -21.5 -1.5t-27 -14.5t-38.5 -38l-93 -116l110 -182q12 -20 25 -32.5t27.5 -17t23 -5.5t21.5 -1v-32h-228v32q30 0 30 23q0 11 -6 20l-69 113l-79 -98q-14 -18 -14 -30q0 -28 45 -28v-32h-170v32
q27 0 47.5 9.5t47.5 44.5l105 132l-101 166q-21 34 -36 45t-42 11v33h212v-33q-31 0 -31 -24q0 -12 13 -34zM543 456l153 36v-407q0 -18 4.5 -29.5t14 -16t15 -5.5t15.5 -2v-32h-206v32q25 1 39 15t16 23.5t2 17.5v298q0 46 -47 46zM642 748q30 0 51 -20.5t21 -50.5
q0 -29 -21 -50t-51 -21q-29 0 -50 21t-21 50q0 30 21 50.5t50 20.5zM767 456l153 36v-407q0 -18 4.5 -29.5t14 -16t15 -5.5t15.5 -2v-32h-207v32q25 1 39.5 15t16.5 23.5t2 17.5v298q0 46 -48 46zM866 748q29 0 50 -20.5t21 -50.5q0 -29 -21 -50t-50 -21t-50 21t-21 50
q0 30 21 50.5t50 20.5z" />
    <glyph glyph-name="uni2460" unicode="&#x2460;" 
d="M977 380q0 -197 -140 -337t-337 -140t-337 140t-140 337q0 131 64.5 241t174 173t238.5 63t238.5 -63t174 -173t64.5 -241zM951 380q0 188 -132.5 319.5t-318.5 131.5q-122 0 -226 -60t-164.5 -164t-60.5 -227q0 -122 60.5 -226t164.5 -164.5t226 -60.5q186 0 318.5 132
t132.5 319zM630 92h-260v25h35q21 0 35 14t14 34v417q0 43 -44 43h-35v22q77 2 137 24q24 12 27 12q7 0 7 -9v-509q0 -20 13 -34t35 -14h36v-25z" />
    <glyph glyph-name="uni2461" unicode="&#x2461;" 
d="M500 857q129 0 238.5 -63t174 -173t64.5 -241q0 -197 -140 -337t-337 -140t-337 140t-140 337q0 131 64.5 241t174 173t238.5 63zM500 831q-122 0 -226 -60t-164.5 -164t-60.5 -227q0 -122 60.5 -226t164.5 -164.5t226 -60.5q186 0 318.5 132t132.5 319
q0 188 -132.5 319.5t-318.5 131.5zM325 92v18q27 69 117 184q43 56 64.5 87.5t41.5 79.5t20 92q0 50 -26 78.5t-59 28.5q-26 0 -45 -18t-19 -40q0 -17 19 -34q15 -15 15 -37q0 -30 -16.5 -44.5t-38.5 -14.5q-28 0 -43 18.5t-15 44.5q0 54 45 101t122 47q74 0 119.5 -44.5
t45.5 -107.5q0 -59 -34 -103t-99 -95q-105 -84 -147 -153h132q56 0 83 25t47 75l23 -6l-44 -182h-308z" />
    <glyph glyph-name="uni2462" unicode="&#x2462;" 
d="M977 380q0 -197 -140 -337t-337 -140t-337 140t-140 337q0 131 64.5 241t174 173t238.5 63t238.5 -63t174 -173t64.5 -241zM951 380q0 188 -132.5 319.5t-318.5 131.5q-122 0 -226 -60t-164.5 -164t-60.5 -227q0 -122 60.5 -226t164.5 -164.5t226 -60.5q186 0 318.5 132
t132.5 319zM674 249q0 -65 -55 -118.5t-135 -53.5q-66 0 -112 37t-46 83q0 26 15.5 41t38.5 15t37.5 -14.5t14.5 -31.5q0 -20 -9 -38q-10 -18 -10 -28q0 -18 19.5 -28.5t43.5 -10.5q32 0 53.5 18.5t29.5 48t10.5 47.5t2.5 36q0 22 -4.5 43t-14.5 43.5t-31 36t-51 13.5
q-2 0 -14 -1.5t-15 -1.5q-18 0 -18 17q0 16 20 16q2 0 15 -1t16 -1q78 0 78 125q0 23 -3.5 45.5t-20.5 47t-46 24.5q-20 0 -34.5 -11.5t-14.5 -34.5q0 -9 5 -19q8 -13 8 -31q0 -23 -14.5 -37t-36.5 -14q-23 0 -37 15.5t-14 39.5q0 44 45 80.5t103 36.5q76 0 118 -42t42 -92
q0 -23 -9 -49t-43 -56t-89 -40q54 -11 90 -33t50 -48t18 -42t4 -32z" />
    <glyph glyph-name="uni2463" unicode="&#x2463;" 
d="M977 380q0 -197 -140 -337t-337 -140t-337 140t-140 337q0 131 64.5 241t174 173t238.5 63t238.5 -63t174 -173t64.5 -241zM951 380q0 188 -132.5 319.5t-318.5 131.5q-122 0 -226 -60t-164.5 -164t-60.5 -227q0 -122 60.5 -226t164.5 -164.5t226 -60.5q186 0 318.5 132
t132.5 319zM652 244h-73v-84q0 -42 41 -42h24v-26h-224v26h27q17 0 27.5 11.5t10.5 27.5v87h-199v22l256 417h37v-414h73v-25zM485 269v272l-167 -272h167z" />
    <glyph glyph-name="uni2464" unicode="&#x2464;" 
d="M977 380q0 -197 -140 -337t-337 -140t-337 140t-140 337q0 131 64.5 241t174 173t238.5 63t238.5 -63t174 -173t64.5 -241zM951 380q0 188 -132.5 319.5t-318.5 131.5q-122 0 -226 -60t-164.5 -164t-60.5 -227q0 -122 60.5 -226t164.5 -164.5t226 -60.5q186 0 318.5 132
t132.5 319zM674 284q0 -86 -63 -146.5t-140 -60.5q-57 0 -101 34.5t-44 88.5q0 29 14.5 44.5t40.5 15.5q23 0 37 -13t14 -39q0 -19 -7 -35q-5 -10 -5 -28q0 -19 14.5 -32t34.5 -13q29 0 55 28q46 47 46 161q0 141 -88 141q-61 0 -113 -77l-19 15l11 300h279l-18 -88h-238
l-7 -174q18 17 29 26.5t39.5 21.5t58.5 12q64 0 117 -52t53 -130z" />
    <glyph glyph-name="uni2465" unicode="&#x2465;" 
d="M977 380q0 -197 -140 -337t-337 -140t-337 140t-140 337q0 131 64.5 241t174 173t238.5 63t238.5 -63t174 -173t64.5 -241zM951 380q0 188 -132.5 319.5t-318.5 131.5q-122 0 -226 -60t-164.5 -164t-60.5 -227q0 -122 60.5 -226t164.5 -164.5t226 -60.5q186 0 318.5 132
t132.5 319zM676 281q0 -81 -51 -142.5t-119 -61.5q-70 0 -126.5 74t-56.5 214q0 82 23.5 152.5t75.5 118t124 47.5q49 0 76 -23t27 -56q0 -25 -15.5 -42t-39.5 -17t-38.5 16.5t-14.5 38.5q0 2 2.5 18t2.5 19q0 23 -26 23q-36 0 -64 -60.5t-36 -191.5q17 15 26.5 22.5t35 18
t53.5 10.5q63 0 102 -55t39 -123zM576 266q0 76 -19.5 116.5t-53.5 40.5q-44 0 -83 -47q-1 -3 -1 -24q0 -82 23 -167t62 -85q28 0 50 42.5t22 123.5z" />
    <glyph glyph-name="uni2466" unicode="&#x2466;" 
d="M977 380q0 -197 -140 -337t-337 -140t-337 140t-140 337q0 131 64.5 241t174 173t238.5 63t238.5 -63t174 -173t64.5 -241zM951 380q0 188 -132.5 319.5t-318.5 131.5q-122 0 -226 -60t-164.5 -164t-60.5 -227q0 -122 60.5 -226t164.5 -164.5t226 -60.5q186 0 318.5 132
t132.5 319zM670 629q-29 -46 -46 -77.5t-45 -92.5t-44.5 -133.5t-22.5 -154.5q-3 -48 -16.5 -71t-48.5 -23q-29 0 -42.5 16.5t-13.5 41.5q0 45 51.5 159.5t163.5 285.5h-164q-31 0 -53 -15t-30.5 -31.5t-18.5 -45.5l-22 9l35 171h317v-39z" />
    <glyph glyph-name="uni2467" unicode="&#x2467;" 
d="M681 255q0 -68 -50.5 -123t-136.5 -55q-74 0 -124.5 43t-50.5 110q0 31 10.5 56t33 44.5t38 29.5t43.5 25q-22 16 -33 25.5t-30 30t-28 44.5t-9 53q0 61 45 103t113 42q61 0 106 -35t45 -89q0 -26 -10 -48.5t-28.5 -39.5t-30 -25t-30.5 -19q27 -18 43.5 -30.5t39 -35
t33.5 -49t11 -57.5zM580 556q0 39 -20.5 71.5t-64.5 32.5q-40 0 -63 -27t-23 -57q0 -63 122 -135q49 54 49 115zM618 210q0 44 -29.5 74.5t-119.5 85.5q-58 -64 -58 -137q0 -62 32.5 -94t74.5 -32q38 0 69 27t31 76zM977 380q0 -197 -140 -337t-337 -140t-337 140t-140 337
q0 131 64.5 241t174 173t238.5 63t238.5 -63t174 -173t64.5 -241zM951 380q0 188 -132.5 319.5t-318.5 131.5q-122 0 -226 -60t-164.5 -164t-60.5 -227q0 -122 60.5 -226t164.5 -164.5t226 -60.5q186 0 318.5 132t132.5 319z" />
    <glyph glyph-name="uni2468" unicode="&#x2468;" 
d="M977 380q0 -197 -140 -337t-337 -140t-337 140t-140 337q0 131 64.5 241t174 173t238.5 63t238.5 -63t174 -173t64.5 -241zM951 380q0 188 -132.5 319.5t-318.5 131.5q-122 0 -226 -60t-164.5 -164t-60.5 -227q0 -122 60.5 -226t164.5 -164.5t226 -60.5q186 0 318.5 132
t132.5 319zM676 395q0 -82 -23.5 -152.5t-75 -118t-123.5 -47.5q-49 0 -76 23t-27 56q0 24 15 41.5t40 17.5t39 -16.5t14 -37.5q0 -2 -2.5 -18.5t-2.5 -19.5q0 -23 26 -23q36 0 64 62t36 190q-54 -51 -115 -51q-63 0 -102 55t-39 123q0 81 51 142.5t119 61.5q70 0 126 -73.5
t56 -214.5zM580 384v13q0 94 -22.5 178.5t-62.5 84.5q-28 0 -49.5 -42.5t-21.5 -123.5q0 -77 20 -117t53 -40q44 0 83 47z" />
    <glyph glyph-name="uni2469" unicode="&#x2469;" 
d="M977 380q0 -197 -140 -337t-337 -140t-337 140t-140 337q0 131 64.5 241t174 173t238.5 63t238.5 -63t174 -173t64.5 -241zM951 380q0 188 -132.5 319.5t-318.5 131.5q-122 0 -226 -60t-164.5 -164t-60.5 -227q0 -122 60.5 -226t164.5 -164.5t226 -60.5q186 0 318.5 132
t132.5 319zM831 380q0 -118 -46 -204.5t-124 -86.5q-77 0 -123 86.5t-46 204.5t46 204.5t123 86.5t123.5 -86t46.5 -205zM734 380q0 21 -1 43t-3 55t-7 61t-12.5 53.5t-20.5 40.5t-29 15t-29 -15t-20.5 -40.5t-12.5 -53.5t-7 -61t-3 -55t-1 -43q0 -18 0.5 -36.5t2.5 -53
t7 -63t12.5 -56.5t20.5 -44t30 -16q16 0 29 15t20.5 41t12.5 54t7 61t3 55t1 43zM444 103h-250v25h34q20 0 33.5 13.5t13.5 32.5v400q0 42 -43 42h-34v20q80 3 132 24q1 0 6.5 3t11.5 5.5t8 2.5q7 0 7 -9v-488q0 -19 12 -32.5t34 -13.5h35v-25z" />
    <glyph glyph-name="uni246A" unicode="&#x246a;" 
d="M977 380q0 -197 -140 -337t-337 -140t-337 140t-140 337q0 131 64.5 241t174 173t238.5 63t238.5 -63t174 -173t64.5 -241zM951 380q0 188 -132.5 319.5t-318.5 131.5q-122 0 -226 -60t-164.5 -164t-60.5 -227q0 -122 60.5 -226t164.5 -164.5t226 -60.5q186 0 318.5 132
t132.5 319zM807 103h-251v25h34q21 0 34 13.5t13 32.5v400q0 42 -42 42h-34v20q81 3 131 24q1 0 12.5 5.5t14.5 5.5q6 0 6 -9v-488q0 -19 12 -32.5t35 -13.5h35v-25zM444 103h-250v25h34q20 0 33.5 13.5t13.5 32.5v400q0 42 -43 42h-34v20q80 3 132 24q1 0 6.5 3t11.5 5.5
t8 2.5q7 0 7 -9v-488q0 -19 12 -32.5t34 -13.5h35v-25z" />
    <glyph glyph-name="uni246B" unicode="&#x246b;" 
d="M194 103v25h34q20 0 33.5 13.5t13.5 32.5v400q0 42 -43 42h-34v20q79 2 132 24q1 0 6.5 3t11.5 5.5t8 2.5q7 0 7 -9v-488q0 -19 12 -32.5t34 -13.5h35v-25h-250zM492 103v18q21 58 112 177q41 52 61.5 82.5t40 76.5t19.5 89q0 48 -25 75t-57 27q-25 0 -43 -17t-18 -38
q0 -17 18 -33q14 -13 14 -34q0 -30 -15.5 -43.5t-37.5 -13.5q-26 0 -40.5 17.5t-14.5 42.5q0 52 43 97t117 45q71 0 115 -42.5t44 -103.5q0 -57 -32.5 -98.5t-95.5 -91.5q-100 -80 -141 -148h126q54 0 80 24.5t45 72.5l23 -6l-42 -175h-296zM500 857q129 0 238.5 -63
t174 -173t64.5 -241q0 -197 -140 -337t-337 -140t-337 140t-140 337q0 131 64.5 241t174 173t238.5 63zM500 831q-122 0 -226 -60t-164.5 -164t-60.5 -227q0 -122 60.5 -226t164.5 -164.5t226 -60.5q186 0 318.5 132t132.5 319q0 188 -132.5 319.5t-318.5 131.5z" />
    <glyph glyph-name="uni246C" unicode="&#x246c;" 
d="M977 380q0 -197 -140 -337t-337 -140t-337 140t-140 337q0 131 64.5 241t174 173t238.5 63t238.5 -63t174 -173t64.5 -241zM951 380q0 188 -132.5 319.5t-318.5 131.5q-122 0 -226 -60t-164.5 -164t-60.5 -227q0 -122 60.5 -226t164.5 -164.5t226 -60.5q186 0 318.5 132
t132.5 319zM829 254q0 -62 -53.5 -113.5t-129.5 -51.5q-64 0 -108 35.5t-44 79.5q0 25 14.5 39.5t37.5 14.5q22 0 36 -14t14 -30q0 -20 -9 -36q-9 -17 -9 -27q0 -18 19.5 -28t41.5 -10q31 0 51.5 17.5t28 46t9.5 45.5t2 35q0 29 -6 55.5t-29 50.5t-61 24q-2 0 -13.5 -1
t-14.5 -1q-18 0 -18 16t20 16q2 0 14.5 -1.5t15.5 -1.5q74 0 74 121q0 14 -2 29.5t-8 36t-21 33.5t-36 13q-19 0 -33 -11.5t-14 -33.5q0 -8 5 -18q7 -11 7 -28q0 -24 -14.5 -37t-34.5 -13q-22 0 -35.5 15t-13.5 38q0 42 43.5 77t98.5 35q73 0 114 -40.5t41 -88.5
q0 -23 -9 -48t-42 -53.5t-85 -37.5q42 -9 73 -25.5t46 -33t24 -36.5t11 -31.5t2 -22.5zM444 103h-250v25h34q20 0 33.5 13.5t13.5 32.5v400q0 42 -43 42h-34v20q80 3 132 24q1 0 6.5 3t11.5 5.5t8 2.5q7 0 7 -9v-488q0 -19 12 -32.5t34 -13.5h35v-25z" />
    <glyph glyph-name="uni246D" unicode="&#x246d;" 
d="M977 380q0 -197 -140 -337t-337 -140t-337 140t-140 337q0 131 64.5 241t174 173t238.5 63t238.5 -63t174 -173t64.5 -241zM951 380q0 188 -132.5 319.5t-318.5 131.5q-122 0 -226 -60t-164.5 -164t-60.5 -227q0 -122 60.5 -226t164.5 -164.5t226 -60.5q186 0 318.5 132
t132.5 319zM815 249h-71v-80q0 -41 40 -41h23v-25h-215v25h26q17 0 26.5 11t9.5 27v83h-182v21l237 401h35v-397h71v-25zM654 274v260l-151 -260h151zM444 103h-250v25h34q20 0 33.5 13.5t13.5 32.5v400q0 42 -43 42h-34v20q80 3 132 24q1 0 6.5 3t11.5 5.5t8 2.5q7 0 7 -9
v-488q0 -19 12 -32.5t34 -13.5h35v-25z" />
    <glyph glyph-name="uni246E" unicode="&#x246e;" 
d="M977 380q0 -197 -140 -337t-337 -140t-337 140t-140 337q0 131 64.5 241t174 173t238.5 63t238.5 -63t174 -173t64.5 -241zM951 380q0 188 -132.5 319.5t-318.5 131.5q-122 0 -226 -60t-164.5 -164t-60.5 -227q0 -122 60.5 -226t164.5 -164.5t226 -60.5q186 0 318.5 132
t132.5 319zM829 288q0 -82 -61 -140.5t-134 -58.5q-55 0 -97.5 33.5t-42.5 85.5q0 28 14.5 42.5t38.5 14.5q21 0 35 -12t14 -38q0 -16 -6 -34q-6 -12 -6 -27q0 -18 14 -30.5t33 -12.5q27 0 54 27q44 46 44 155q0 135 -85 135q-58 0 -108 -74l-18 14l10 289h268l-17 -85h-229
l-7 -167q61 58 122 58q62 0 113 -50t51 -125zM444 103h-250v25h34q20 0 33.5 13.5t13.5 32.5v400q0 42 -43 42h-34v20q80 3 132 24q1 0 6.5 3t11.5 5.5t8 2.5q7 0 7 -9v-488q0 -19 12 -32.5t34 -13.5h35v-25z" />
    <glyph glyph-name="uni246F" unicode="&#x246f;" 
d="M977 380q0 -197 -140 -337t-337 -140t-337 140t-140 337q0 131 64.5 241t174 173t238.5 63t238.5 -63t174 -173t64.5 -241zM951 380q0 188 -132.5 319.5t-318.5 131.5q-122 0 -226 -60t-164.5 -164t-60.5 -227q0 -122 60.5 -226t164.5 -164.5t226 -60.5q186 0 318.5 132
t132.5 319zM831 285q0 -78 -49 -137t-115 -59q-68 0 -121.5 71t-53.5 206q0 78 22 145.5t72 113.5t119 46q48 0 74 -22.5t26 -53.5q0 -24 -15 -40t-39 -16q-23 0 -37 15.5t-14 36.5q0 2 2.5 17.5t2.5 18.5q0 22 -24 22q-35 0 -61.5 -58.5t-34.5 -183.5q52 49 110 49
q59 0 97.5 -52.5t38.5 -118.5zM734 270q0 73 -18.5 112t-51.5 39q-42 0 -80 -45v-23q0 -79 22 -160.5t60 -81.5q27 0 47.5 40.5t20.5 118.5zM444 103h-250v25h34q20 0 33.5 13.5t13.5 32.5v400q0 42 -43 42h-34v20q80 3 132 24q1 0 6.5 3t11.5 5.5t8 2.5q7 0 7 -9v-488
q0 -19 12 -32.5t34 -13.5h35v-25z" />
    <glyph glyph-name="uni2470" unicode="&#x2470;" 
d="M977 380q0 -197 -140 -337t-337 -140t-337 140t-140 337q0 131 64.5 241t174 173t238.5 63t238.5 -63t174 -173t64.5 -241zM951 380q0 188 -132.5 319.5t-318.5 131.5q-122 0 -226 -60t-164.5 -164t-60.5 -227q0 -122 60.5 -226t164.5 -164.5t226 -60.5q186 0 318.5 132
t132.5 319zM813 619q-28 -44 -44.5 -74t-43.5 -88.5t-43 -128.5t-21 -148q-3 -47 -16.5 -69t-46.5 -22q-29 0 -41.5 16.5t-12.5 38.5q0 43 50 153.5t157 274.5h-158q-23 0 -39.5 -7t-28 -22t-17 -26.5t-13.5 -32.5l-21 8l34 165h305v-38zM444 103h-250v25h34q20 0 33.5 13.5
t13.5 32.5v400q0 42 -43 42h-34v20q80 3 132 24q1 0 6.5 3t11.5 5.5t8 2.5q7 0 7 -9v-488q0 -19 12 -32.5t34 -13.5h35v-25z" />
    <glyph glyph-name="uni2471" unicode="&#x2471;" 
d="M835 260q0 -65 -48.5 -118t-131.5 -53q-70 0 -118.5 41.5t-48.5 105.5q0 52 30 84.5t89 64.5q-19 14 -31 24t-29 29t-26 42.5t-9 50.5q0 58 43.5 99t108.5 41q59 0 102 -34t43 -85q0 -25 -9.5 -46.5t-27.5 -37.5t-29 -24t-30 -19q26 -17 42 -29t37 -33.5t32 -47t11 -55.5
zM738 549q0 36 -19.5 67.5t-61.5 31.5q-39 0 -61 -25.5t-22 -54.5q0 -63 117 -130q47 52 47 111zM774 216q0 41 -27 71.5t-116 82.5q-55 -62 -55 -131q0 -60 31 -90.5t72 -30.5q37 0 66 25.5t29 72.5zM977 380q0 -197 -140 -337t-337 -140t-337 140t-140 337q0 131 64.5 241
t174 173t238.5 63t238.5 -63t174 -173t64.5 -241zM951 380q0 188 -132.5 319.5t-318.5 131.5q-122 0 -226 -60t-164.5 -164t-60.5 -227q0 -122 60.5 -226t164.5 -164.5t226 -60.5q186 0 318.5 132t132.5 319zM444 103h-250v25h34q20 0 33.5 13.5t13.5 32.5v400q0 42 -43 42
h-34v20q80 3 132 24q1 0 6.5 3t11.5 5.5t8 2.5q7 0 7 -9v-488q0 -19 12 -32.5t34 -13.5h35v-25z" />
    <glyph glyph-name="uni2472" unicode="&#x2472;" 
d="M977 380q0 -197 -140 -337t-337 -140t-337 140t-140 337q0 131 64.5 241t174 173t238.5 63t238.5 -63t174 -173t64.5 -241zM951 380q0 188 -132.5 319.5t-318.5 131.5q-122 0 -226 -60t-164.5 -164t-60.5 -227q0 -122 60.5 -226t164.5 -164.5t226 -60.5q186 0 318.5 132
t132.5 319zM831 394q0 -123 -56 -214t-158 -91q-48 0 -73.5 22t-25.5 54q0 23 15 39.5t38 16.5q24 0 37.5 -16t13.5 -35q0 -2 -2.5 -18t-2.5 -19q0 -22 25 -22q34 0 61 58.5t35 183.5q-52 -49 -111 -49t-97 52.5t-38 118.5q0 79 49.5 137.5t114.5 58.5q67 0 121 -71t54 -206
zM739 396q0 88 -22 170t-60 82q-27 0 -48 -41t-21 -119q0 -72 19.5 -110.5t51.5 -38.5q43 0 79 45q1 2 1 12zM444 103h-250v25h34q20 0 33.5 13.5t13.5 32.5v400q0 42 -43 42h-34v20q80 3 132 24q1 0 6.5 3t11.5 5.5t8 2.5q7 0 7 -9v-488q0 -19 12 -32.5t34 -13.5h35v-25z
" />
    <glyph glyph-name="uni2473" unicode="&#x2473;" 
d="M681 671q77 0 123.5 -86t46.5 -205q0 -118 -46 -204.5t-124 -86.5q-77 0 -123 86.5t-46 204.5t46 204.5t123 86.5zM681 648q-23 0 -39 -30t-22.5 -78t-9 -85.5t-2.5 -74.5q0 -18 0.5 -36t2.5 -52.5t7 -63t12.5 -57t20.5 -44.5t30 -16q23 0 39 30t22.5 78.5t9 85.5t2.5 75
q0 37 -2.5 74t-9 85.5t-22.5 78.5t-39 30zM500 857q129 0 238.5 -63t174 -173t64.5 -241q0 -197 -140 -337t-337 -140t-337 140t-140 337q0 131 64.5 241t174 173t238.5 63zM500 831q-122 0 -226 -60t-164.5 -164t-60.5 -227q0 -122 60.5 -226t164.5 -164.5t226 -60.5
q186 0 318.5 132t132.5 319q0 188 -132.5 319.5t-318.5 131.5zM149 103v18q26 64 113 177q40 51 61 82t40 77t19 89q0 48 -25 75t-57 27q-25 0 -42.5 -17t-17.5 -38q0 -16 17 -33q15 -14 15 -34q0 -30 -15.5 -43.5t-37.5 -13.5q-26 0 -41 17.5t-15 42.5q0 52 43 97t118 45
q71 0 114.5 -42.5t43.5 -103.5q0 -57 -32 -98.5t-95 -91.5q-105 -83 -142 -148h127q53 0 79 24.5t46 72.5l22 -6l-42 -175h-296z" />
    <glyph glyph-name="uni2474" unicode="&#x2474;" 
d="M990 380q0 -37 -5 -80.5t-20 -108t-49.5 -134.5t-85.5 -130l-9 5q24 42 40 76t39.5 94t36 131t12.5 147t-12.5 147t-36 131t-39.5 94t-40 76l9 5q51 -60 85.5 -130t49.5 -134.5t20 -108t5 -80.5zM642 66h-284v28h39q22 0 37.5 15t15.5 37v453q0 48 -48 48h-38v23
q89 4 148 27q1 1 8.5 4.5t14 6t8.5 2.5q7 0 7 -11v-553q0 -22 14 -37t38 -15h40v-28zM179 -68l-9 -5q-51 60 -85.5 130t-49.5 134.5t-20 108t-5 80.5t5 80.5t20 108t49.5 134.5t85.5 130l9 -5q-24 -42 -40 -76t-39.5 -94t-36 -131t-12.5 -147t12.5 -147t36 -131t39.5 -94
t40 -76z" />
    <glyph glyph-name="uni2475" unicode="&#x2475;" 
d="M179 -68l-9 -5q-45 53 -77.5 116.5t-48 112.5t-24 103.5t-9.5 76.5t-1 44t1 44t9.5 76.5t24 103.5t48 112.5t77.5 116.5l9 -5q-24 -42 -40 -76t-39.5 -94t-36 -131t-12.5 -147t12.5 -147t36 -131t39.5 -94t40 -76zM830 -73l-9 5q24 42 40 76t39.5 94t36 131t12.5 147
t-12.5 147t-36 131t-39.5 94t-40 76l9 5q45 -53 77.5 -116.5t48 -112.5t24 -103.5t9.5 -76.5t1 -44t-1 -44t-9.5 -76.5t-24 -103.5t-48 -112.5t-77.5 -116.5zM310 66v20q27 71 127 201q46 60 70.5 95t45.5 86.5t21 99.5q0 55 -28.5 85.5t-64.5 30.5q-28 0 -48.5 -19.5
t-20.5 -43.5q0 -18 20 -36q17 -17 17 -40q0 -34 -18.5 -49.5t-42.5 -15.5q-29 0 -45.5 20.5t-16.5 48.5q0 59 48.5 110t133.5 51q80 0 129.5 -48.5t49.5 -117.5q0 -44 -21.5 -85t-48.5 -67.5t-74 -63.5q-35 -28 -53.5 -43.5t-52 -51.5t-54.5 -71h143q61 0 91 28t51 81l25 -7
l-48 -198h-335z" />
    <glyph glyph-name="uni2476" unicode="&#x2476;" 
d="M990 380q0 -37 -5 -80.5t-20 -108t-49.5 -134.5t-85.5 -130l-9 5q24 42 40 76t39.5 94t36 131t12.5 147t-12.5 147t-36 131t-39.5 94t-40 76l9 5q51 -60 85.5 -130t49.5 -134.5t20 -108t5 -80.5zM690 238q0 -71 -60.5 -129.5t-147.5 -58.5q-72 0 -122 40.5t-50 90.5
q0 28 17 44.5t42 16.5t41 -16t16 -35q0 -23 -10 -41q-10 -20 -10 -30q0 -20 21.5 -31.5t46.5 -11.5q35 0 58 19.5t32 51t11.5 52t2.5 41.5q0 34 -7.5 64t-33.5 56.5t-69 26.5q-2 0 -14.5 -1t-15.5 -1q-21 0 -21 18t21 18q2 0 17 -1.5t17 -1.5q86 0 86 137q0 17 -3 35
t-10 40.5t-23.5 36.5t-40.5 14q-22 0 -37.5 -12t-15.5 -38q0 -11 6 -20q8 -13 8 -34q0 -26 -16.5 -40.5t-39.5 -14.5q-25 0 -40 17t-15 43q0 47 49 87t112 40q82 0 128.5 -45t46.5 -101q0 -13 -3 -28.5t-13.5 -36.5t-26.5 -38.5t-45 -32.5t-66 -22q48 -10 83 -28.5
t52.5 -37.5t27.5 -41.5t12 -35.5t2 -25zM179 -68l-9 -5q-51 60 -85.5 130t-49.5 134.5t-20 108t-5 80.5t5 80.5t20 108t49.5 134.5t85.5 130l9 -5q-24 -42 -40 -76t-39.5 -94t-36 -131t-12.5 -147t12.5 -147t36 -131t39.5 -94t40 -76z" />
    <glyph glyph-name="uni2477" unicode="&#x2477;" 
d="M675 232h-80v-91q0 -46 46 -46h25v-29h-244v29h30q18 0 29.5 12t11.5 30v95h-216v24l279 454h39v-451h80v-27zM493 259v296l-181 -296h181zM990 380q0 -37 -5 -80.5t-20 -108t-49.5 -134.5t-85.5 -130l-9 5q24 42 40 76t39.5 94t36 131t12.5 147t-12.5 147t-36 131
t-39.5 94t-40 76l9 5q51 -60 85.5 -130t49.5 -134.5t20 -108t5 -80.5zM179 -68l-9 -5q-51 60 -85.5 130t-49.5 134.5t-20 108t-5 80.5t5 80.5t20 108t49.5 134.5t85.5 130l9 -5q-24 -42 -40 -76t-39.5 -94t-36 -131t-12.5 -147t12.5 -147t36 -131t39.5 -94t40 -76z" />
    <glyph glyph-name="uni2478" unicode="&#x2478;" 
d="M990 380q0 -37 -5 -80.5t-20 -108t-49.5 -134.5t-85.5 -130l-9 5q24 42 40 76t39.5 94t36 131t12.5 147t-12.5 147t-36 131t-39.5 94t-40 76l9 5q51 -60 85.5 -130t49.5 -134.5t20 -108t5 -80.5zM690 275q0 -92 -69 -158.5t-152 -66.5q-61 0 -110 37.5t-49 96.5
q0 32 16 49t44 17q56 0 56 -57q0 -22 -7 -38q-7 -14 -7 -30q0 -22 16.5 -36t37.5 -14q45 0 80 56q30 47 30 150q0 24 -3 46.5t-12 48.5t-30 42t-51 16q-66 0 -123 -83l-20 15l12 328h303l-19 -96h-260l-7 -190q66 66 138 66q70 0 128 -57t58 -142zM179 -68l-9 -5
q-51 60 -85.5 130t-49.5 134.5t-20 108t-5 80.5t5 80.5t20 108t49.5 134.5t85.5 130l9 -5q-24 -42 -40 -76t-39.5 -94t-36 -131t-12.5 -147t12.5 -147t36 -131t39.5 -94t40 -76z" />
    <glyph glyph-name="uni2479" unicode="&#x2479;" 
d="M692 272q0 -89 -55.5 -155.5t-129.5 -66.5q-36 0 -70 18.5t-63.5 55t-47.5 99t-18 141.5q0 89 25.5 165.5t82 128.5t134.5 52q53 0 82.5 -25t29.5 -61q0 -27 -16.5 -45.5t-43.5 -18.5t-42.5 18.5t-15.5 39.5q0 3 3 20.5t3 21.5q0 25 -28 25q-40 0 -70 -69t-39 -206
q59 56 125 56q68 0 111 -59.5t43 -134.5zM583 256q0 83 -21.5 126.5t-59.5 43.5q-48 0 -89 -50q0 -2 -0.5 -7t-0.5 -7q0 -102 25 -194.5t68 -92.5q31 0 54.5 46.5t23.5 134.5zM990 380q0 -37 -5 -80.5t-20 -108t-49.5 -134.5t-85.5 -130l-9 5q24 42 40 76t39.5 94t36 131
t12.5 147t-12.5 147t-36 131t-39.5 94t-40 76l9 5q51 -60 85.5 -130t49.5 -134.5t20 -108t5 -80.5zM179 -68l-9 -5q-51 60 -85.5 130t-49.5 134.5t-20 108t-5 80.5t5 80.5t20 108t49.5 134.5t85.5 130l9 -5q-24 -42 -40 -76t-39.5 -94t-36 -131t-12.5 -147t12.5 -147
t36 -131t39.5 -94t40 -76z" />
    <glyph glyph-name="uni247A" unicode="&#x247a;" 
d="M990 380q0 -37 -5 -80.5t-20 -108t-49.5 -134.5t-85.5 -130l-9 5q24 42 40 76t39.5 94t36 131t12.5 147t-12.5 147t-36 131t-39.5 94t-40 76l9 5q51 -60 85.5 -130t49.5 -134.5t20 -108t5 -80.5zM692 651q-31 -48 -50.5 -83.5t-49 -101.5t-48 -145t-24.5 -168
q-3 -53 -18 -78t-53 -25q-31 0 -46 17.5t-15 45.5q0 48 56.5 173t177.5 312h-178q-26 0 -45 -7.5t-32 -25t-19.5 -30.5t-15.5 -37l-23 9l38 187h345v-43zM179 -68l-9 -5q-51 60 -85.5 130t-49.5 134.5t-20 108t-5 80.5t5 80.5t20 108t49.5 134.5t85.5 130l9 -5
q-24 -42 -40 -76t-39.5 -94t-36 -131t-12.5 -147t12.5 -147t36 -131t39.5 -94t40 -76z" />
    <glyph glyph-name="uni247B" unicode="&#x247b;" 
d="M696 244q0 -75 -55 -134.5t-148 -59.5q-80 0 -135 47t-55 120q0 34 11.5 61.5t36 48.5t41.5 32t47 27q-22 16 -35.5 27.5t-33 33t-29.5 48t-10 57.5q0 65 49 111.5t122 46.5q67 0 116 -38t49 -97q0 -29 -10.5 -53t-31 -42.5t-33.5 -27t-34 -20.5q31 -20 48.5 -34
t41.5 -38t36 -53t12 -63zM587 571q0 43 -22.5 78t-69.5 35q-44 0 -69 -28.5t-25 -62.5q0 -68 133 -147q53 59 53 125zM628 195q0 49 -33 82t-129 92q-62 -74 -62 -149q0 -69 35.5 -103.5t80.5 -34.5q41 0 74.5 29.5t33.5 83.5zM990 380q0 -37 -5 -80.5t-20 -108
t-49.5 -134.5t-85.5 -130l-9 5q24 42 40 76t39.5 94t36 131t12.5 147t-12.5 147t-36 131t-39.5 94t-40 76l9 5q51 -60 85.5 -130t49.5 -134.5t20 -108t5 -80.5zM179 -68l-9 -5q-51 60 -85.5 130t-49.5 134.5t-20 108t-5 80.5t5 80.5t20 108t49.5 134.5t85.5 130l9 -5
q-24 -42 -40 -76t-39.5 -94t-36 -131t-12.5 -147t12.5 -147t36 -131t39.5 -94t40 -76z" />
    <glyph glyph-name="uni247C" unicode="&#x247c;" 
d="M692 396q0 -89 -25.5 -165.5t-82 -128.5t-134.5 -52q-54 0 -83 25t-29 62q0 27 16.5 45t43.5 18t42.5 -18t15.5 -40q0 -3 -3 -20.5t-3 -20.5q0 -26 28 -26q39 0 69.5 67t39.5 208q-17 -16 -28.5 -25t-38.5 -20t-58 -11q-68 0 -111 59.5t-43 133.5q0 89 55.5 156t129.5 67
q36 0 70 -18.5t63.5 -55t47.5 -99t18 -141.5zM588 402q0 99 -25 190.5t-68 91.5q-30 0 -54 -45.5t-24 -134.5q0 -80 20.5 -125t59.5 -45q49 0 90 50q0 2 0.5 9.5t0.5 8.5zM990 380q0 -37 -5 -80.5t-20 -108t-49.5 -134.5t-85.5 -130l-9 5q24 42 40 76t39.5 94t36 131
t12.5 147t-12.5 147t-36 131t-39.5 94t-40 76l9 5q51 -60 85.5 -130t49.5 -134.5t20 -108t5 -80.5zM179 -68l-9 -5q-51 60 -85.5 130t-49.5 134.5t-20 108t-5 80.5t5 80.5t20 108t49.5 134.5t85.5 130l9 -5q-24 -42 -40 -76t-39.5 -94t-36 -131t-12.5 -147t12.5 -147
t36 -131t39.5 -94t40 -76z" />
    <glyph glyph-name="uni247D" unicode="&#x247d;" 
d="M865 380q0 -83 -21 -154t-64 -117t-100 -46q-83 0 -133.5 94t-50.5 223t50 223t134 94q83 0 134 -93.5t51 -223.5zM760 380q0 19 -0.5 39t-2.5 57.5t-7.5 68.5t-14 61.5t-22.5 48t-33 17.5q-18 0 -31.5 -16t-22 -44.5t-14 -58.5t-7.5 -66.5t-3 -60t-1 -46.5t1 -46.5
t3 -60t7.5 -66.5t14 -58.5t22 -44.5t31.5 -16q19 0 33 17.5t22.5 48t14 61.5t7.5 68.5t2.5 57t0.5 39.5zM990 380q0 -37 -5 -80.5t-20 -108t-49.5 -134.5t-85.5 -130l-9 5q24 42 40 76t39.5 94t36 131t12.5 147t-12.5 147t-36 131t-39.5 94t-40 76l9 5q51 -60 85.5 -130
t49.5 -134.5t20 -108t5 -80.5zM436 79h-273v27h38q22 0 36.5 14.5t14.5 35.5v435q0 45 -46 45h-37v23q86 3 143 25q26 13 29 13q7 0 7 -10v-531q0 -22 13 -36t37 -14h38v-27zM179 -68l-9 -5q-51 60 -85.5 130t-49.5 134.5t-20 108t-5 80.5t5 80.5t20 108t49.5 134.5
t85.5 130l9 -5q-24 -42 -40 -76t-39.5 -94t-36 -131t-12.5 -147t12.5 -147t36 -131t39.5 -94t40 -76z" />
    <glyph glyph-name="uni247E" unicode="&#x247e;" 
d="M179 -68l-9 -5q-45 53 -77.5 116.5t-48 112.5t-24 103.5t-9.5 76.5t-1 44t1 44t9.5 76.5t24 103.5t48 112.5t77.5 116.5l9 -5q-24 -42 -40 -76t-39.5 -94t-36 -131t-12.5 -147t12.5 -147t36 -131t39.5 -94t40 -76zM830 -73l-9 5q24 42 40 76t39.5 94t36 131t12.5 147
t-12.5 147t-36 131t-39.5 94t-40 76l9 5q45 -53 77.5 -116.5t48 -112.5t24 -103.5t9.5 -76.5t1 -44t-1 -44t-9.5 -76.5t-24 -103.5t-48 -112.5t-77.5 -116.5zM163 79v27h38q22 0 36.5 14.5t14.5 35.5v435q0 45 -46 45h-37v23q77 0 143 25q26 13 29 13q7 0 7 -10v-531
q0 -22 13 -36t37 -14h38v-27h-273zM564 79v27h37q22 0 36.5 14.5t14.5 35.5v435q0 45 -46 45h-36v23q79 0 143 25q26 13 28 13q7 0 7 -10v-531q0 -22 13 -36t38 -14h38v-27h-273z" />
    <glyph glyph-name="uni247F" unicode="&#x247f;" 
d="M163 79v27h38q22 0 36.5 14.5t14.5 35.5v435q0 45 -46 45h-37v23q78 0 143 25q26 13 29 13q7 0 7 -10v-531q0 -22 13 -36t37 -14h38v-27h-273zM495 79v19q30 75 122 193q44 56 67 90.5t43.5 84t20.5 95.5q0 52 -27.5 81.5t-61.5 29.5q-27 0 -46.5 -18.5t-19.5 -41.5
q0 -15 19 -36q16 -14 16 -38q0 -32 -17.5 -47t-40.5 -15q-28 0 -44 19.5t-16 46.5q0 56 47 105.5t128 49.5q77 0 124.5 -46.5t47.5 -112.5q0 -62 -35 -107.5t-103 -99.5q-111 -90 -154 -161h137q32 0 56 8.5t39.5 26t23.5 32.5t17 38l24 -6l-45 -190h-322zM179 -68l-9 -5
q-45 53 -77.5 116.5t-48 112.5t-24 103.5t-9.5 76.5t-1 44t1 44t9.5 76.5t24 103.5t48 112.5t77.5 116.5l9 -5q-24 -42 -40 -76t-39.5 -94t-36 -131t-12.5 -147t12.5 -147t36 -131t39.5 -94t40 -76zM830 -73l-9 5q24 42 40 76t39.5 94t36 131t12.5 147t-12.5 147t-36 131
t-39.5 94t-40 76l9 5q45 -53 77.5 -116.5t48 -112.5t24 -103.5t9.5 -76.5t1 -44t-1 -44t-9.5 -76.5t-24 -103.5t-48 -112.5t-77.5 -116.5z" />
    <glyph glyph-name="uni2480" unicode="&#x2480;" 
d="M163 79v27h38q22 0 36.5 14.5t14.5 35.5v435q0 45 -46 45h-37v23q78 0 143 25q26 13 29 13q7 0 7 -10v-531q0 -22 13 -36t37 -14h38v-27h-273zM693 405q48 -10 82.5 -29.5t50.5 -37.5t25 -41.5t10 -33.5t1 -20q0 -68 -57.5 -124t-141.5 -56q-69 0 -117 39t-48 87
q0 27 16 42.5t41 15.5q24 0 39 -15t15 -33q0 -21 -9 -39q-10 -17 -10 -30q0 -18 20.5 -29t44.5 -11q28 0 48.5 14.5t30 32.5t15 44t6 38.5t0.5 26.5q0 22 -4 43.5t-14.5 45.5t-32.5 38.5t-54 14.5q-2 0 -14.5 -1t-14.5 -1q-20 0 -20 17t20 17q2 0 16 -1t17 -1q82 0 82 130
q0 24 -4 48t-22 49t-48 25q-19 0 -35 -11.5t-16 -36.5q0 -10 6 -20q8 -13 8 -31q0 -26 -15.5 -40t-38.5 -14q-24 0 -38.5 16t-14.5 41q0 46 47.5 84.5t106.5 38.5q79 0 124 -43.5t45 -96.5q0 -17 -6 -36.5t-20.5 -44t-46 -44t-75.5 -27.5zM179 -68l-9 -5q-45 53 -77.5 116.5
t-48 112.5t-24 103.5t-9.5 76.5t-1 44t1 44t9.5 76.5t24 103.5t48 112.5t77.5 116.5l9 -5q-24 -42 -40 -76t-39.5 -94t-36 -131t-12.5 -147t12.5 -147t36 -131t39.5 -94t40 -76zM830 -73l-9 5q24 42 40 76t39.5 94t36 131t12.5 147t-12.5 147t-36 131t-39.5 94t-40 76l9 5
q45 -53 77.5 -116.5t48 -112.5t24 -103.5t9.5 -76.5t1 -44t-1 -44t-9.5 -76.5t-24 -103.5t-48 -112.5t-77.5 -116.5z" />
    <glyph glyph-name="uni2481" unicode="&#x2481;" 
d="M469 238v23l267 436h38v-433h77v-26h-77v-87q0 -45 44 -45h24v-27h-234v27h29q18 0 28.5 12t10.5 29v91h-207zM676 548l-174 -284h174v284zM179 -68l-9 -5q-45 53 -77.5 116.5t-48 112.5t-24 103.5t-9.5 76.5t-1 44t1 44t9.5 76.5t24 103.5t48 112.5t77.5 116.5l9 -5
q-24 -42 -40 -76t-39.5 -94t-36 -131t-12.5 -147t12.5 -147t36 -131t39.5 -94t40 -76zM830 -73l-9 5q24 42 40 76t39.5 94t36 131t12.5 147t-12.5 147t-36 131t-39.5 94t-40 76l9 5q45 -53 77.5 -116.5t48 -112.5t24 -103.5t9.5 -76.5t1 -44t-1 -44t-9.5 -76.5t-24 -103.5
t-48 -112.5t-77.5 -116.5zM163 79v27h38q22 0 36.5 14.5t14.5 35.5v435q0 45 -46 45h-37v23q74 0 143 25q26 13 29 13q7 0 7 -10v-531q0 -22 13 -36t37 -14h38v-27h-273z" />
    <glyph glyph-name="uni2482" unicode="&#x2482;" 
d="M179 -68l-9 -5q-45 53 -77.5 116.5t-48 112.5t-24 103.5t-9.5 76.5t-1 44t1 44t9.5 76.5t24 103.5t48 112.5t77.5 116.5l9 -5q-24 -42 -40 -76t-39.5 -94t-36 -131t-12.5 -147t12.5 -147t36 -131t39.5 -94t40 -76zM830 -73l-9 5q24 42 40 76t39.5 94t36 131t12.5 147
t-12.5 147t-36 131t-39.5 94t-40 76l9 5q45 -53 77.5 -116.5t48 -112.5t24 -103.5t9.5 -76.5t1 -44t-1 -44t-9.5 -76.5t-24 -103.5t-48 -112.5t-77.5 -116.5zM163 79v27h38q22 0 36.5 14.5t14.5 35.5v435q0 45 -46 45h-37v23q78 0 143 25q26 13 29 13q7 0 7 -10v-531
q0 -22 13 -36t37 -14h38v-27h-273zM808 590h-249l-7 -183q63 63 132 63q68 0 123 -54.5t55 -136.5q0 -89 -65.5 -152.5t-146.5 -63.5q-59 0 -105.5 36.5t-46.5 93.5q0 29 15.5 45.5t42.5 16.5q53 0 53 -55q0 -20 -7 -36q-6 -18 -6 -29q0 -21 16 -34t35 -13q32 0 59 29
q48 49 48 168q0 23 -3 44.5t-12 47t-29 40.5t-49 15q-63 0 -118 -80l-19 15l11 314h292z" />
    <glyph glyph-name="uni2483" unicode="&#x2483;" 
d="M597 409q55 53 120 53q66 0 107 -57t41 -128q0 -86 -53.5 -150t-125.5 -64q-74 0 -132 77.5t-58 223.5q0 85 24 159t78.5 124t129.5 50q52 0 80 -24.5t28 -58.5q0 -26 -16 -43.5t-42 -17.5t-40.5 17.5t-14.5 37.5q0 3 2.5 20t2.5 20q0 24 -27 24q-36 0 -66 -63t-38 -200z
M596 376v-14q0 -98 24 -186t65 -88q29 0 52 44t23 129q0 77 -20 120t-57 43q-47 0 -87 -48zM179 -68l-9 -5q-45 53 -77.5 116.5t-48 112.5t-24 103.5t-9.5 76.5t-1 44t1 44t9.5 76.5t24 103.5t48 112.5t77.5 116.5l9 -5q-24 -42 -40 -76t-39.5 -94t-36 -131t-12.5 -147
t12.5 -147t36 -131t39.5 -94t40 -76zM830 -73l-9 5q24 42 40 76t39.5 94t36 131t12.5 147t-12.5 147t-36 131t-39.5 94t-40 76l9 5q45 -53 77.5 -116.5t48 -112.5t24 -103.5t9.5 -76.5t1 -44t-1 -44t-9.5 -76.5t-24 -103.5t-48 -112.5t-77.5 -116.5zM163 79v27h38
q22 0 36.5 14.5t14.5 35.5v435q0 45 -46 45h-37v23q73 0 143 25q26 13 29 13q7 0 7 -10v-531q0 -22 13 -36t37 -14h38v-27h-273z" />
    <glyph glyph-name="uni2484" unicode="&#x2484;" 
d="M179 -68l-9 -5q-45 53 -77.5 116.5t-48 112.5t-24 103.5t-9.5 76.5t-1 44t1 44t9.5 76.5t24 103.5t48 112.5t77.5 116.5l9 -5q-24 -42 -40 -76t-39.5 -94t-36 -131t-12.5 -147t12.5 -147t36 -131t39.5 -94t40 -76zM830 -73l-9 5q24 42 40 76t39.5 94t36 131t12.5 147
t-12.5 147t-36 131t-39.5 94t-40 76l9 5q45 -53 77.5 -116.5t48 -112.5t24 -103.5t9.5 -76.5t1 -44t-1 -44t-9.5 -76.5t-24 -103.5t-48 -112.5t-77.5 -116.5zM163 79v27h38q22 0 36.5 14.5t14.5 35.5v435q0 45 -46 45h-37v23q77 0 143 25q26 13 29 13q7 0 7 -10v-531
q0 -22 13 -36t37 -14h38v-27h-273zM516 681h331v-41q-41 -65 -67 -112t-59 -151t-40 -215q-3 -52 -17 -75.5t-51 -23.5q-29 0 -43.5 17t-14.5 43q0 44 51.5 161.5t173.5 305.5h-172q-32 0 -54.5 -16t-31.5 -33t-21 -48l-22 9z" />
    <glyph glyph-name="uni2485" unicode="&#x2485;" 
d="M622 386q-42 25 -73 66t-31 93q0 63 47 107.5t118 44.5q64 0 111 -36.5t47 -93.5q0 -27 -10 -50.5t-29 -40.5t-32.5 -26t-33.5 -20q29 -20 46 -33t40.5 -36.5t35 -51t11.5 -60.5q0 -71 -53 -128.5t-142 -57.5q-78 0 -130 45.5t-52 114.5q0 27 9 50.5t20 38.5t32.5 31
t33.5 23t35 20zM648 369q-60 -66 -60 -142q0 -66 33.5 -99.5t77.5 -33.5q40 0 72.5 28.5t32.5 79.5q0 21 -6.5 38.5t-15 30t-32.5 30.5t-42 30t-60 38zM713 444q51 57 51 119q0 42 -22 75.5t-66 33.5q-42 0 -66.5 -27.5t-24.5 -60.5q0 -66 128 -140zM179 -68l-9 -5
q-45 53 -77.5 116.5t-48 112.5t-24 103.5t-9.5 76.5t-1 44t1 44t9.5 76.5t24 103.5t48 112.5t77.5 116.5l9 -5q-24 -42 -40 -76t-39.5 -94t-36 -131t-12.5 -147t12.5 -147t36 -131t39.5 -94t40 -76zM830 -73l-9 5q24 42 40 76t39.5 94t36 131t12.5 147t-12.5 147t-36 131
t-39.5 94t-40 76l9 5q45 -53 77.5 -116.5t48 -112.5t24 -103.5t9.5 -76.5t1 -44t-1 -44t-9.5 -76.5t-24 -103.5t-48 -112.5t-77.5 -116.5zM163 79v27h38q22 0 36.5 14.5t14.5 35.5v435q0 45 -46 45h-37v23q77 0 143 25q26 13 29 13q7 0 7 -10v-531q0 -22 13 -36t37 -14h38
v-27h-273z" />
    <glyph glyph-name="uni2486" unicode="&#x2486;" 
d="M764 351q-55 -53 -120 -53t-106.5 57t-41.5 128q0 85 53.5 149.5t124.5 64.5q74 0 132.5 -78t58.5 -223q0 -85 -24 -158.5t-78.5 -124t-130.5 -50.5q-51 0 -79.5 24t-28.5 59q0 26 16.5 43.5t41.5 17.5q26 0 41 -17t15 -39q0 -2 -3 -19t-3 -20q0 -25 27 -25
q16 0 31.5 12.5t30.5 40.5t26.5 82.5t16.5 128.5zM764 384v17q0 96 -23.5 183.5t-64.5 87.5q-29 0 -52 -43.5t-23 -129.5q0 -78 20 -121t57 -43q46 0 86 49zM179 -68l-9 -5q-45 53 -77.5 116.5t-48 112.5t-24 103.5t-9.5 76.5t-1 44t1 44t9.5 76.5t24 103.5t48 112.5
t77.5 116.5l9 -5q-24 -42 -40 -76t-39.5 -94t-36 -131t-12.5 -147t12.5 -147t36 -131t39.5 -94t40 -76zM830 -73l-9 5q24 42 40 76t39.5 94t36 131t12.5 147t-12.5 147t-36 131t-39.5 94t-40 76l9 5q45 -53 77.5 -116.5t48 -112.5t24 -103.5t9.5 -76.5t1 -44t-1 -44
t-9.5 -76.5t-24 -103.5t-48 -112.5t-77.5 -116.5zM163 79v27h38q22 0 36.5 14.5t14.5 35.5v435q0 45 -46 45h-37v23q77 0 143 25q26 13 29 13q7 0 7 -10v-531q0 -22 13 -36t37 -14h38v-27h-273z" />
    <glyph glyph-name="uni2487" unicode="&#x2487;" 
d="M708 697q83 0 134 -93.5t51 -223.5q0 -83 -21 -154t-64 -117t-100 -46q-83 0 -133.5 94t-50.5 223t50 223t134 94zM708 672q-25 0 -42.5 -32.5t-24.5 -85t-9.5 -93t-2.5 -81.5t2.5 -81.5t9.5 -93t24.5 -85t42.5 -32.5q18 0 32.5 17.5t22.5 47.5t13.5 60.5t8 68t3 58
t0.5 40.5q0 19 -0.5 38.5t-2.5 57t-7.5 68.5t-14 62t-22.5 48.5t-33 17.5zM179 -68l-9 -5q-45 53 -77.5 116.5t-48 112.5t-24 103.5t-9.5 76.5t-1 44t1 44t9.5 76.5t24 103.5t48 112.5t77.5 116.5l9 -5q-24 -42 -40 -76t-39.5 -94t-36 -131t-12.5 -147t12.5 -147t36 -131
t39.5 -94t40 -76zM830 -73l-9 5q24 42 40 76t39.5 94t36 131t12.5 147t-12.5 147t-36 131t-39.5 94t-40 76l9 5q45 -53 77.5 -116.5t48 -112.5t24 -103.5t9.5 -76.5t1 -44t-1 -44t-9.5 -76.5t-24 -103.5t-48 -112.5t-77.5 -116.5zM122 79v19q29 73 123 193q43 55 66.5 90
t43.5 84.5t20 95.5q0 52 -27 81.5t-61 29.5q-27 0 -46.5 -18.5t-19.5 -41.5q0 -17 19 -36q16 -15 16 -38q0 -32 -17.5 -47t-40.5 -15q-29 0 -45 19.5t-16 46.5q0 56 47 105.5t128 49.5q78 0 125 -46.5t47 -112.5q0 -62 -35 -108t-103 -99q-111 -90 -154 -161h138
q32 0 56 8.5t39 26.5t23 32t18 38l24 -6l-46 -190h-322z" />
    <glyph glyph-name="uni2488" unicode="&#x2488;" 
d="M921 53q0 -29 -21 -50.5t-51 -21.5t-51.5 21.5t-21.5 50.5q0 30 21.5 51.5t51.5 21.5q29 0 50.5 -21t21.5 -52zM674 0h-348v32h48q28 0 46.5 18t18.5 43v527q0 27 -15.5 41.5t-42.5 14.5h-48v27q111 3 184 31l35 14q9 0 9 -12v-643q0 -27 17 -44t47 -17h49v-32z" />
    <glyph glyph-name="uni2489" unicode="&#x2489;" 
d="M849 126q29 0 50.5 -21t21.5 -52q0 -29 -21 -50.5t-51 -21.5t-51.5 21.5t-21.5 50.5q0 30 21.5 51.5t51.5 21.5zM256 0v22q34 90 158 234q110 130 144.5 186.5t34.5 128.5q0 68 -32.5 108t-83.5 40q-35 0 -69.5 -17.5t-34.5 -55.5q0 -21 25 -43q20 -19 20 -46
q0 -38 -21.5 -56.5t-46.5 -18.5q-29 0 -51.5 21.5t-22.5 58.5q0 27 12.5 57.5t37.5 60t69 49t100 19.5q112 0 170 -58.5t58 -133.5t-45.5 -130.5t-133.5 -120.5q-142 -106 -198 -194h177q71 0 110 29.5t67 97.5l30 -8l-59 -230h-415z" />
    <glyph glyph-name="uni248A" unicode="&#x248a;" 
d="M921 53q0 -29 -21 -50.5t-51 -21.5t-51.5 21.5t-21.5 50.5q0 30 21.5 51.5t51.5 21.5q29 0 50.5 -21t21.5 -52zM751 193q0 -97 -80.5 -154.5t-189.5 -57.5q-101 0 -166.5 47.5t-65.5 105.5q0 33 23 51.5t52 18.5q28 0 50 -18t22 -40q0 -26 -14 -48q-13 -21 -13 -35
q0 -21 26.5 -35.5t73.5 -14.5q54 0 81 17q71 45 71 163q0 91 -47 136.5t-112 45.5q-3 0 -22 -1.5t-23 -1.5q-27 0 -27 21q0 20 28 20q4 0 26 -1.5t26 -1.5q41 0 64 15q57 39 57 144q0 84 -43 126q-24 22 -69 22q-81 0 -81 -59q0 -13 8 -24q11 -14 11 -38q0 -33 -23 -49
t-47 -16q-28 0 -49.5 19t-21.5 51q0 51 62 99.5t149 48.5q112 0 173 -53.5t61 -116.5q0 -22 -8.5 -46.5t-29 -53t-63.5 -52t-102 -32.5q123 -22 178 -77.5t55 -124.5z" />
    <glyph glyph-name="uni248B" unicode="&#x248b;" 
d="M921 53q0 -29 -21 -50.5t-51 -21.5t-51.5 21.5t-21.5 50.5q0 30 21.5 51.5t51.5 21.5q29 0 50.5 -21t21.5 -52zM767 192h-115v-105q0 -54 61 -54h41v-33h-326v33h48q25 0 39.5 13.5t14.5 35.5v110h-297v28l374 528h45v-524h115v-32zM530 224v360l-255 -360h255z" />
    <glyph glyph-name="uni248C" unicode="&#x248c;" 
d="M921 53q0 -29 -21 -50.5t-51 -21.5t-51.5 21.5t-21.5 50.5q0 30 21.5 51.5t51.5 21.5q29 0 50.5 -21t21.5 -52zM744 236q0 -111 -78.5 -183t-195.5 -72q-94 0 -154 45.5t-60 110.5q0 41 23.5 59t50.5 18q25 0 47 -15t22 -51q0 -25 -10 -45q-8 -19 -8 -36q0 -19 17 -37.5
t61 -18.5t76 21.5t48 57t23.5 73t7.5 77.5q0 34 -6 64t-20 59.5t-41.5 47t-66.5 17.5q-103 0 -169 -93l-20 14l15 381h390l-25 -111h-337l-9 -223q24 22 41.5 35t56.5 28t81 15q88 0 164 -64.5t76 -173.5z" />
    <glyph glyph-name="uni248D" unicode="&#x248d;" 
d="M921 53q0 -29 -21 -50.5t-51 -21.5t-51.5 21.5t-21.5 50.5q0 30 21.5 51.5t51.5 21.5q29 0 50.5 -21t21.5 -52zM748 240q0 -103 -71.5 -181t-168.5 -78q-45 0 -89 21.5t-82 64t-61.5 115t-23.5 164.5q0 106 34 196t106.5 148t170.5 58q64 0 105.5 -27t41.5 -73
q0 -34 -23.5 -54t-49.5 -20t-48 19.5t-22 47.5q0 3 4 24t4 25q0 30 -39 30q-52 0 -91 -57q-50 -72 -63 -263q21 18 36 28.5t51 23.5t77 13q93 0 147.5 -70.5t54.5 -154.5zM619 220q0 93 -29 146t-84 53q-66 0 -124 -59q-1 -4 -1 -25q0 -67 13 -138.5t44 -128.5t72 -57
q42 0 75.5 52.5t33.5 156.5z" />
    <glyph glyph-name="uni248E" unicode="&#x248e;" 
d="M921 53q0 -29 -21 -50.5t-51 -21.5t-51.5 21.5t-21.5 50.5q0 30 21.5 51.5t51.5 21.5q29 0 50.5 -21t21.5 -52zM738 680q-29 -45 -46.5 -73.5t-49 -90t-50.5 -116.5t-37 -135t-24 -164q-4 -61 -21.5 -90.5t-63.5 -29.5q-37 0 -55 20.5t-18 52.5q0 42 31 119
q74 183 250 446h-215q-31 0 -54 -9t-38.5 -29t-22.5 -35t-19 -44l-28 11l47 217h414v-50z" />
    <glyph glyph-name="uni248F" unicode="&#x248f;" 
d="M747 206q0 -86 -69 -155.5t-186 -69.5q-101 0 -170 54.5t-69 139.5q0 40 14.5 71.5t45 56.5t51 37t59.5 32q-27 18 -44 31.5t-42 38.5t-37.5 55.5t-12.5 66.5q0 77 62 130.5t154 53.5q84 0 145.5 -44t61.5 -113q0 -33 -13.5 -61t-38.5 -49t-42.5 -32t-42.5 -24
q31 -19 48 -30.5t45 -34.5t42.5 -43t26.5 -49.5t12 -61.5zM610 587q0 50 -28.5 91t-87.5 41q-55 0 -86.5 -33.5t-31.5 -72.5q0 -82 167 -171q67 70 67 145zM661 149q0 59 -41 96.5t-163 106.5q-78 -84 -78 -173q0 -80 44 -120t102 -40q52 0 94 33.5t42 96.5zM921 53
q0 -29 -21 -50.5t-51 -21.5t-51.5 21.5t-21.5 50.5q0 30 21.5 51.5t51.5 21.5q29 0 50.5 -21t21.5 -52z" />
    <glyph glyph-name="uni2490" unicode="&#x2490;" 
d="M921 53q0 -29 -21 -50.5t-51 -21.5t-51.5 21.5t-21.5 50.5q0 30 21.5 51.5t51.5 21.5q29 0 50.5 -21t21.5 -52zM748 384q0 -79 -20.5 -151t-58.5 -128.5t-98 -90t-134 -33.5q-64 0 -105.5 27.5t-41.5 73.5q0 34 23.5 53.5t49.5 19.5t48 -19.5t22 -47.5q0 -3 -4 -23.5
t-4 -24.5q0 -30 39 -30q52 0 91 57q50 75 63 263q-21 -18 -36 -28.5t-51 -23.5t-77 -13q-93 0 -147.5 70t-54.5 155q0 103 71.5 180.5t167.5 77.5q46 0 90 -21.5t82 -63.5t61.5 -114.5t23.5 -164.5zM619 395q0 67 -13 138.5t-44 128.5t-72 57q-42 0 -75.5 -52.5
t-33.5 -157.5q0 -93 28.5 -145.5t83.5 -52.5q67 0 125 59q1 4 1 25z" />
    <glyph glyph-name="uni249C" unicode="&#x249c;" 
d="M710 220q-32 -57 -90 -57q-50 0 -71 45q-60 -45 -122 -45q-53 0 -78.5 27t-25.5 61t29 68q25 29 64 50.5t64 29t66 17.5v106q0 52 -51 52q-22 0 -34 -9.5t-14 -18t-3 -21.5q-1 -11 -1.5 -16t-4 -16.5t-8.5 -17.5t-15 -11t-24 -5q-24 0 -39 15t-15 35q0 40 44 64t117 24
q16 0 36.5 -2t49 -11.5t38.5 -24.5q11 -17 11 -65v-223q0 -60 34 -60q16 0 32 16zM546 228v164q-124 -52 -124 -130q0 -18 7.5 -30t19.5 -16.5t20.5 -6t16.5 -1.5q34 0 60 20zM990 380q0 -37 -5 -80.5t-20 -108t-49.5 -134.5t-85.5 -130l-9 5q24 42 40 76t39.5 94t36 131
t12.5 147t-12.5 147t-36 131t-39.5 94t-40 76l9 5q51 -60 85.5 -130t49.5 -134.5t20 -108t5 -80.5zM179 -68l-9 -5q-51 60 -85.5 130t-49.5 134.5t-20 108t-5 80.5t5 80.5t20 108t49.5 134.5t85.5 130l9 -5q-24 -42 -40 -76t-39.5 -94t-36 -131t-12.5 -147t12.5 -147
t36 -131t39.5 -94t40 -76z" />
    <glyph glyph-name="uni249D" unicode="&#x249d;" 
d="M276 675l148 31v-255q48 37 110 37q47 0 84 -20t57.5 -52.5t30.5 -67.5t10 -71q0 -83 -49.5 -153t-139.5 -70q-26 0 -46 5.5t-29 11.5t-23 18l-78 -35h-14v568q0 36 -27 36q-11 0 -29 -5zM424 414v-287q32 -32 81 -32q112 0 112 184q0 11 -1 22.5t-4 33t-11 39t-20 35
t-33.5 27.5t-48.5 10q-43 0 -75 -32zM179 -68l-9 -5q-45 53 -77.5 116.5t-48 112.5t-24 103.5t-9.5 76.5t-1 44t1 44t9.5 76.5t24 103.5t48 112.5t77.5 116.5l9 -5q-24 -42 -40 -76t-39.5 -94t-36 -131t-12.5 -147t12.5 -147t36 -131t39.5 -94t40 -76zM830 -73l-9 5
q24 42 40 76t39.5 94t36 131t12.5 147t-12.5 147t-36 131t-39.5 94t-40 76l9 5q45 -53 77.5 -116.5t48 -112.5t24 -103.5t9.5 -76.5t1 -44t-1 -44t-9.5 -76.5t-24 -103.5t-48 -112.5t-77.5 -116.5z" />
    <glyph glyph-name="uni249E" unicode="&#x249e;" 
d="M990 380q0 -37 -5 -80.5t-20 -108t-49.5 -134.5t-85.5 -130l-9 5q24 42 40 76t39.5 94t36 131t12.5 147t-12.5 147t-36 131t-39.5 94t-40 76l9 5q51 -60 85.5 -130t49.5 -134.5t20 -108t5 -80.5zM682 265q-17 -22 -26.5 -33t-32 -30.5t-51 -29t-62.5 -9.5
q-82 0 -131 57.5t-49 147.5q0 91 52 160t157 69q52 0 89 -21t37 -64q0 -24 -18 -39.5t-39 -15.5q-18 0 -32 11.5t-14 31.5q0 2 0.5 16t0.5 17q-1 13 -11 25t-32 12q-33 0 -55.5 -31t-30.5 -69t-8 -78q0 -80 34 -131.5t90 -51.5t111 74zM179 -68l-9 -5q-51 60 -85.5 130
t-49.5 134.5t-20 108t-5 80.5t5 80.5t20 108t49.5 134.5t85.5 130l9 -5q-24 -42 -40 -76t-39.5 -94t-36 -131t-12.5 -147t12.5 -147t36 -131t39.5 -94t40 -76z" />
    <glyph glyph-name="uni249F" unicode="&#x249f;" 
d="M725 70h-159v35q-12 -15 -19.5 -23t-31 -18t-54.5 -10q-77 0 -122 65.5t-45 152.5q0 90 48.5 153t131.5 63q45 0 92 -35v164q0 14 -8.5 24t-25.5 10q-15 0 -42 -10l-7 20l172 45v-566q0 -43 45 -43h25v-27zM566 136v287q-30 28 -68 28q-40 0 -66 -30.5t-35 -69t-9 -83.5
q0 -75 29 -123t76 -48q34 0 73 39zM179 -68l-9 -5q-45 53 -77.5 116.5t-48 112.5t-24 103.5t-9.5 76.5t-1 44t1 44t9.5 76.5t24 103.5t48 112.5t77.5 116.5l9 -5q-24 -42 -40 -76t-39.5 -94t-36 -131t-12.5 -147t12.5 -147t36 -131t39.5 -94t40 -76zM830 -73l-9 5
q24 42 40 76t39.5 94t36 131t12.5 147t-12.5 147t-36 131t-39.5 94t-40 76l9 5q45 -53 77.5 -116.5t48 -112.5t24 -103.5t9.5 -76.5t1 -44t-1 -44t-9.5 -76.5t-24 -103.5t-48 -112.5t-77.5 -116.5z" />
    <glyph glyph-name="uni24A0" unicode="&#x24a0;" 
d="M686 274q-13 -21 -23 -33t-32 -34t-52 -33t-66 -11q-80 0 -135.5 58t-55.5 150q0 94 56 160t131 66q63 0 110 -53.5t54 -141.5h-259v-18q0 -76 34.5 -127t90.5 -51q28 0 56 17.5t40.5 31.5t30.5 36zM581 430q-1 19 -1.5 28t-3 29.5t-7 31.5t-12 25t-20 20t-28.5 6
q-22 0 -39 -11.5t-25.5 -25.5t-15.5 -37.5t-9 -34.5t-4 -31h165zM990 380q0 -37 -5 -80.5t-20 -108t-49.5 -134.5t-85.5 -130l-9 5q24 42 40 76t39.5 94t36 131t12.5 147t-12.5 147t-36 131t-39.5 94t-40 76l9 5q51 -60 85.5 -130t49.5 -134.5t20 -108t5 -80.5zM179 -68
l-9 -5q-51 60 -85.5 130t-49.5 134.5t-20 108t-5 80.5t5 80.5t20 108t49.5 134.5t85.5 130l9 -5q-24 -42 -40 -76t-39.5 -94t-36 -131t-12.5 -147t12.5 -147t36 -131t39.5 -94t40 -76z" />
    <glyph glyph-name="uni24A1" unicode="&#x24a1;" 
d="M990 380q0 -37 -5 -80.5t-20 -108t-49.5 -134.5t-85.5 -130l-9 5q24 42 40 76t39.5 94t36 131t12.5 147t-12.5 147t-36 131t-39.5 94t-40 76l9 5q51 -60 85.5 -130t49.5 -134.5t20 -108t5 -80.5zM700 646q0 -22 -13 -37t-38 -15q-19 0 -30 8t-14 16t-6 25q-5 24 -23 24
q-22 0 -35.5 -28t-13.5 -69v-98h124v-28h-124v-288q0 -31 12.5 -45t48.5 -14h20v-27h-252v27h21q31 0 46 13.5t15 45.5v288h-86v28h86v51q0 80 49.5 131.5t135.5 51.5q77 0 77 -60zM179 -68l-9 -5q-51 60 -85.5 130t-49.5 134.5t-20 108t-5 80.5t5 80.5t20 108t49.5 134.5
t85.5 130l9 -5q-24 -42 -40 -76t-39.5 -94t-36 -131t-12.5 -147t12.5 -147t36 -131t39.5 -94t40 -76z" />
    <glyph glyph-name="uni24A2" unicode="&#x24a2;" 
d="M745 616q0 -21 -11.5 -36.5t-33.5 -15.5q-15 0 -21.5 5.5t-17.5 23.5q-9 13 -19 13q-4 0 -12 -6q37 -48 37 -90q0 -63 -49.5 -104.5t-120.5 -41.5q-26 0 -53 8q-27 -11 -27 -27q0 -20 99 -30q103 -8 149.5 -32t46.5 -69q0 -27 -13.5 -47t-38 -31.5t-48 -19t-54.5 -10.5
t-45 -3.5t-31 -0.5q-191 0 -191 80q0 19 9.5 32.5t28.5 20.5t31 10t34 6q-60 21 -60 63q0 50 84 68q-86 47 -86 131q0 63 48.5 104t115.5 41q65 0 113 -38q27 30 42.5 41t34.5 11q22 0 40.5 -15t18.5 -41zM574 508q0 16 -2 32t-8 39t-22 37.5t-40 14.5q-41 0 -59.5 -35.5
t-18.5 -86.5q0 -49 17.5 -83t56.5 -34q36 0 56 31t20 85zM638 183q0 20 -25 33t-53 18q-36 6 -124 9q-75 -16 -75 -60q0 -54 128 -54q74 0 111.5 15.5t37.5 38.5zM990 380q0 -37 -5 -80.5t-20 -108t-49.5 -134.5t-85.5 -130l-9 5q24 42 40 76t39.5 94t36 131t12.5 147
t-12.5 147t-36 131t-39.5 94t-40 76l9 5q51 -60 85.5 -130t49.5 -134.5t20 -108t5 -80.5zM179 -68l-9 -5q-51 60 -85.5 130t-49.5 134.5t-20 108t-5 80.5t5 80.5t20 108t49.5 134.5t85.5 130l9 -5q-24 -42 -40 -76t-39.5 -94t-36 -131t-12.5 -147t12.5 -147t36 -131
t39.5 -94t40 -76z" />
    <glyph glyph-name="uni24A3" unicode="&#x24a3;" 
d="M179 -68l-9 -5q-45 53 -77.5 116.5t-48 112.5t-24 103.5t-9.5 76.5t-1 44t1 44t9.5 76.5t24 103.5t48 112.5t77.5 116.5l9 -5q-24 -42 -40 -76t-39.5 -94t-36 -131t-12.5 -147t12.5 -147t36 -131t39.5 -94t40 -76zM830 -73l-9 5q24 42 40 76t39.5 94t36 131t12.5 147
t-12.5 147t-36 131t-39.5 94t-40 76l9 5q45 -53 77.5 -116.5t48 -112.5t24 -103.5t9.5 -76.5t1 -44t-1 -44t-9.5 -76.5t-24 -103.5t-48 -112.5t-77.5 -116.5zM281 70v27q15 0 22.5 1t16 4.5t12 13.5t3.5 26v487q0 31 -28 31q-14 0 -29 -3l-4 22l149 27v-292q68 74 137 74
q45 0 74 -34.5t29 -89.5v-223q0 -44 39 -44h20v-27h-149v293q0 39 -19.5 55.5t-40.5 16.5q-45 0 -90 -55v-238q0 -21 11 -31.5t21 -12t26 -1.5v-27h-200z" />
    <glyph glyph-name="uni24A4" unicode="&#x24a4;" 
d="M179 -68l-9 -5q-45 53 -77.5 116.5t-48 112.5t-24 103.5t-9.5 76.5t-1 44t1 44t9.5 76.5t24 103.5t48 112.5t77.5 116.5l9 -5q-24 -42 -40 -76t-39.5 -94t-36 -131t-12.5 -147t12.5 -147t36 -131t39.5 -94t40 -76zM830 -73l-9 5q24 42 40 76t39.5 94t36 131t12.5 147
t-12.5 147t-36 131t-39.5 94t-40 76l9 5q45 -53 77.5 -116.5t48 -112.5t24 -103.5t9.5 -76.5t1 -44t-1 -44t-9.5 -76.5t-24 -103.5t-48 -112.5t-77.5 -116.5zM385 70v27h30q20 0 31.5 12.5t11.5 33.5v252q0 42 -32 42q-14 0 -29 -5l-5 21q28 7 153 35v-345q0 -46 47 -46h26
v-27h-233zM502 706q24 0 42 -17t18 -43q0 -25 -18 -43t-42 -18q-25 0 -43 18t-18 43q0 26 18 43t43 17z" />
    <glyph glyph-name="uni24A5" unicode="&#x24a5;" 
d="M179 -68l-9 -5q-45 53 -77.5 116.5t-48 112.5t-24 103.5t-9.5 76.5t-1 44t1 44t9.5 76.5t24 103.5t48 112.5t77.5 116.5l9 -5q-24 -42 -40 -76t-39.5 -94t-36 -131t-12.5 -147t12.5 -147t36 -131t39.5 -94t40 -76zM830 -73l-9 5q24 42 40 76t39.5 94t36 131t12.5 147
t-12.5 147t-36 131t-39.5 94t-40 76l9 5q45 -53 77.5 -116.5t48 -112.5t24 -103.5t9.5 -76.5t1 -44t-1 -44t-9.5 -76.5t-24 -103.5t-48 -112.5t-77.5 -116.5zM410 498l-6 20l165 31v-392q0 -73 -32.5 -118.5t-104.5 -45.5q-93 0 -93 62q0 25 15.5 41t40.5 16q44 0 48 -52
q0 -29 19 -29t19 45v380q0 46 -42 46q-13 0 -29 -4zM525 767q24 0 42 -17.5t18 -42.5t-18 -42.5t-42 -17.5q-25 0 -43 17.5t-18 42.5t18 42.5t43 17.5z" />
    <glyph glyph-name="uni24A6" unicode="&#x24a6;" 
d="M179 -68l-9 -5q-45 53 -77.5 116.5t-48 112.5t-24 103.5t-9.5 76.5t-1 44t1 44t9.5 76.5t24 103.5t48 112.5t77.5 116.5l9 -5q-24 -42 -40 -76t-39.5 -94t-36 -131t-12.5 -147t12.5 -147t36 -131t39.5 -94t40 -76zM830 -73l-9 5q24 42 40 76t39.5 94t36 131t12.5 147
t-12.5 147t-36 131t-39.5 94t-40 76l9 5q45 -53 77.5 -116.5t48 -112.5t24 -103.5t9.5 -76.5t1 -44t-1 -44t-9.5 -76.5t-24 -103.5t-48 -112.5t-77.5 -116.5zM556 387l-33 -37l101 -185q17 -31 36.5 -47.5t29.5 -18.5t25 -2v-27h-205v27q29 0 29 23q0 14 -7 26l-71 134
l-36 -41v-99q0 -15 4.5 -24.5t14.5 -13t16.5 -4.5t18.5 -1v-27h-194v27q12 0 18.5 1t15.5 4.5t13.5 13t4.5 24.5v485q0 38 -27 38q-5 0 -10 -0.5t-10.5 -2t-7.5 -1.5l-7 22l150 25v-423l104 116q13 16 13 28q0 17 -24 17h-42v28h223v-28h-32q-60 0 -111 -57z" />
    <glyph glyph-name="uni24A7" unicode="&#x24a7;" 
d="M179 -68l-9 -5q-45 53 -77.5 116.5t-48 112.5t-24 103.5t-9.5 76.5t-1 44t1 44t9.5 76.5t24 103.5t48 112.5t77.5 116.5l9 -5q-24 -42 -40 -76t-39.5 -94t-36 -131t-12.5 -147t12.5 -147t36 -131t39.5 -94t40 -76zM830 -73l-9 5q24 42 40 76t39.5 94t36 131t12.5 147
t-12.5 147t-36 131t-39.5 94t-40 76l9 5q45 -53 77.5 -116.5t48 -112.5t24 -103.5t9.5 -76.5t1 -44t-1 -44t-9.5 -76.5t-24 -103.5t-48 -112.5t-77.5 -116.5zM388 70v27q19 0 29 1.5t20.5 6.5t14.5 17.5t4 33.5v466q0 38 -26 38q-6 0 -26 -6l-6 19l146 33v-550
q0 -38 16 -48.5t52 -10.5v-27h-224z" />
    <glyph glyph-name="uni24A8" unicode="&#x24a8;" 
d="M179 -68l-9 -5q-45 53 -77.5 116.5t-48 112.5t-24 103.5t-9.5 76.5t-1 44t1 44t9.5 76.5t24 103.5t48 112.5t77.5 116.5l9 -5q-24 -42 -40 -76t-39.5 -94t-36 -131t-12.5 -147t12.5 -147t36 -131t39.5 -94t40 -76zM830 -73l-9 5q24 42 40 76t39.5 94t36 131t12.5 147
t-12.5 147t-36 131t-39.5 94t-40 76l9 5q45 -53 77.5 -116.5t48 -112.5t24 -103.5t9.5 -76.5t1 -44t-1 -44t-9.5 -76.5t-24 -103.5t-48 -112.5t-77.5 -116.5zM150 561l154 36v-60q17 18 28.5 28t38.5 21t58 11q88 0 115 -80q18 25 29 38t39 27.5t62 14.5q33 0 56 -13
t34 -35.5t15 -42.5t4 -43v-205q0 -34 12.5 -42.5t48.5 -8.5v-28h-149v290q0 38 -18 54.5t-43 16.5q-60 0 -90 -81v-201q0 -33 11.5 -42t45.5 -9v-28h-145v289q0 45 -16 60.5t-43 15.5t-46 -11t-27 -21.5t-20 -32.5v-221q0 -33 12.5 -42t48.5 -9v-28h-209v28q38 0 49.5 8.5
t11.5 42.5v255q0 35 -31 35q-16 0 -30 -7z" />
    <glyph glyph-name="uni24A9" unicode="&#x24a9;" 
d="M179 -68l-9 -5q-45 53 -77.5 116.5t-48 112.5t-24 103.5t-9.5 76.5t-1 44t1 44t9.5 76.5t24 103.5t48 112.5t77.5 116.5l9 -5q-24 -42 -40 -76t-39.5 -94t-36 -131t-12.5 -147t12.5 -147t36 -131t39.5 -94t40 -76zM830 -73l-9 5q24 42 40 76t39.5 94t36 131t12.5 147
t-12.5 147t-36 131t-39.5 94t-40 76l9 5q45 -53 77.5 -116.5t48 -112.5t24 -103.5t9.5 -76.5t1 -44t-1 -44t-9.5 -76.5t-24 -103.5t-48 -112.5t-77.5 -116.5zM280 179v28q20 0 29 1.5t17 11.5t8 31v268q0 32 -29 32q-4 0 -28 -3l-5 22l149 27v-73q70 73 137 73
q45 0 74.5 -35t29.5 -89v-223q0 -43 38 -43h20v-28h-148v293q0 37 -19 54.5t-43 17.5q-41 0 -89 -55v-238q0 -16 5.5 -25.5t16 -13t18 -4.5t19.5 -1v-28h-200z" />
    <glyph glyph-name="uni24AA" unicode="&#x24aa;" 
d="M688 380q0 -89 -56 -153t-132 -64t-132 64t-56 153t55.5 153t132.5 64t132.5 -64.5t55.5 -152.5zM589 391q0 61 -7.5 100t-21.5 56t-27 22t-33 5q-48 0 -68.5 -42t-20.5 -164q0 -62 7.5 -101t22.5 -55.5t28 -21t32 -4.5q48 0 68 43t20 162zM990 380q0 -37 -5 -80.5
t-20 -108t-49.5 -134.5t-85.5 -130l-9 5q24 42 40 76t39.5 94t36 131t12.5 147t-12.5 147t-36 131t-39.5 94t-40 76l9 5q51 -60 85.5 -130t49.5 -134.5t20 -108t5 -80.5zM179 -68l-9 -5q-51 60 -85.5 130t-49.5 134.5t-20 108t-5 80.5t5 80.5t20 108t49.5 134.5t85.5 130
l9 -5q-24 -42 -40 -76t-39.5 -94t-36 -131t-12.5 -147t12.5 -147t36 -131t39.5 -94t40 -76z" />
    <glyph glyph-name="uni24AB" unicode="&#x24ab;" 
d="M437 666v-57q15 17 25.5 26.5t34.5 20t51 10.5q70 0 114.5 -59.5t44.5 -152.5q0 -101 -48.5 -161.5t-114.5 -60.5q-26 0 -49 11t-33 20.5t-25 26.5v-94q0 -38 13.5 -48.5t51.5 -10.5v-27h-220v27q36 0 50.5 11.5t14.5 47.5v368q0 50 -30 50q-15 0 -35 -7l-7 18zM437 560
v-224q11 -17 18 -26t26.5 -21.5t42.5 -12.5q42 0 64 39.5t22 134.5q0 173 -84 173q-51 0 -89 -63zM179 -68l-9 -5q-45 53 -77.5 116.5t-48 112.5t-24 103.5t-9.5 76.5t-1 44t1 44t9.5 76.5t24 103.5t48 112.5t77.5 116.5l9 -5q-24 -42 -40 -76t-39.5 -94t-36 -131
t-12.5 -147t12.5 -147t36 -131t39.5 -94t40 -76zM830 -73l-9 5q24 42 40 76t39.5 94t36 131t12.5 147t-12.5 147t-36 131t-39.5 94t-40 76l9 5q45 -53 77.5 -116.5t48 -112.5t24 -103.5t9.5 -76.5t1 -44t-1 -44t-9.5 -76.5t-24 -103.5t-48 -112.5t-77.5 -116.5z" />
    <glyph glyph-name="uni24AC" unicode="&#x24ac;" 
d="M498 110v27h17q31 0 42 13.5t11 45.5v91q-15 -17 -24.5 -26.5t-32.5 -19t-52 -9.5q-77 0 -119 61t-42 146q0 100 52.5 163.5t126.5 63.5q48 0 93 -32l75 32h10v-470q0 -33 11.5 -46t41.5 -13h17v-27h-227zM568 331v265q-36 38 -73 38q-50 0 -75 -52.5t-25 -134.5
q0 -173 89 -173q47 0 84 57zM179 -68l-9 -5q-45 53 -77.5 116.5t-48 112.5t-24 103.5t-9.5 76.5t-1 44t1 44t9.5 76.5t24 103.5t48 112.5t77.5 116.5l9 -5q-24 -42 -40 -76t-39.5 -94t-36 -131t-12.5 -147t12.5 -147t36 -131t39.5 -94t40 -76zM830 -73l-9 5q24 42 40 76
t39.5 94t36 131t12.5 147t-12.5 147t-36 131t-39.5 94t-40 76l9 5q45 -53 77.5 -116.5t48 -112.5t24 -103.5t9.5 -76.5t1 -44t-1 -44t-9.5 -76.5t-24 -103.5t-48 -112.5t-77.5 -116.5z" />
    <glyph glyph-name="uni24AD" unicode="&#x24ad;" 
d="M179 -68l-9 -5q-45 53 -77.5 116.5t-48 112.5t-24 103.5t-9.5 76.5t-1 44t1 44t9.5 76.5t24 103.5t48 112.5t77.5 116.5l9 -5q-24 -42 -40 -76t-39.5 -94t-36 -131t-12.5 -147t12.5 -147t36 -131t39.5 -94t40 -76zM830 -73l-9 5q24 42 40 76t39.5 94t36 131t12.5 147
t-12.5 147t-36 131t-39.5 94t-40 76l9 5q45 -53 77.5 -116.5t48 -112.5t24 -103.5t9.5 -76.5t1 -44t-1 -44t-9.5 -76.5t-24 -103.5t-48 -112.5t-77.5 -116.5zM518 597v-82q13 18 22 28t27 25t41.5 22t52.5 7q38 0 57.5 -17t19.5 -46q0 -26 -16 -44t-45 -18q-23 0 -39.5 13
t-17.5 37q-1 12 -3.5 16.5t-12.5 4.5q-21 0 -41 -23q-28 -31 -45 -82v-173q0 -30 14 -44t47 -14h22v-28h-249v27q19 0 29.5 1t23 6.5t18 18t5.5 33.5v224q0 32 -7 43t-29 11q-16 0 -33 -5l-7 18z" />
    <glyph glyph-name="uni24AE" unicode="&#x24ae;" 
d="M990 380q0 -37 -5 -80.5t-20 -108t-49.5 -134.5t-85.5 -130l-9 5q24 42 40 76t39.5 94t36 131t12.5 147t-12.5 147t-36 131t-39.5 94t-40 76l9 5q51 -60 85.5 -130t49.5 -134.5t20 -108t5 -80.5zM658 291q0 -60 -40 -94t-91 -34q-21 0 -49 7q-2 0 -24 5t-24 5
q-18 0 -52 -17l-44 135l32 12q16 -37 37 -58q50 -52 119 -52q27 0 47.5 15t20.5 42q0 22 -19 39t-90 52q-62 31 -91 61.5t-29 73.5q0 45 31 79.5t85 34.5q21 0 50 -9q25 -7 37 -7q28 0 51 16l37 -131l-25 -8q-48 109 -140 109q-59 0 -59 -49q0 -21 18 -38t80 -47
q75 -37 103.5 -67t28.5 -75zM179 -68l-9 -5q-51 60 -85.5 130t-49.5 134.5t-20 108t-5 80.5t5 80.5t20 108t49.5 134.5t85.5 130l9 -5q-24 -42 -40 -76t-39.5 -94t-36 -131t-12.5 -147t12.5 -147t36 -131t39.5 -94t40 -76z" />
    <glyph glyph-name="uni24AF" unicode="&#x24af;" 
d="M179 -68l-9 -5q-45 53 -77.5 116.5t-48 112.5t-24 103.5t-9.5 76.5t-1 44t1 44t9.5 76.5t24 103.5t48 112.5t77.5 116.5l9 -5q-24 -42 -40 -76t-39.5 -94t-36 -131t-12.5 -147t12.5 -147t36 -131t39.5 -94t40 -76zM830 -73l-9 5q24 42 40 76t39.5 94t36 131t12.5 147
t-12.5 147t-36 131t-39.5 94t-40 76l9 5q45 -53 77.5 -116.5t48 -112.5t24 -103.5t9.5 -76.5t1 -44t-1 -44t-9.5 -76.5t-24 -103.5t-48 -112.5t-77.5 -116.5zM430 489h-67v27q61 6 89 36q16 18 27.5 43t11.5 43v24h27v-146h117v-27h-117v-284q0 -33 14.5 -46t32.5 -13
q26 0 62 36l18 -19q-19 -20 -31 -30.5t-37 -22.5t-51 -12q-43 0 -69.5 27.5t-26.5 79.5v284z" />
    <glyph glyph-name="uni24B0" unicode="&#x24b0;" 
d="M179 -68l-9 -5q-45 53 -77.5 116.5t-48 112.5t-24 103.5t-9.5 76.5t-1 44t1 44t9.5 76.5t24 103.5t48 112.5t77.5 116.5l9 -5q-24 -42 -40 -76t-39.5 -94t-36 -131t-12.5 -147t12.5 -147t36 -131t39.5 -94t40 -76zM830 -73l-9 5q24 42 40 76t39.5 94t36 131t12.5 147
t-12.5 147t-36 131t-39.5 94t-40 76l9 5q45 -53 77.5 -116.5t48 -112.5t24 -103.5t9.5 -76.5t1 -44t-1 -44t-9.5 -76.5t-24 -103.5t-48 -112.5t-77.5 -116.5zM286 547l-7 20l148 30v-295q0 -79 67 -79q18 0 33.5 7.5t23.5 15t20 22.5v251q0 34 -26 34q-4 0 -36 -6l-7 19
l157 31v-346q0 -44 38 -44h25v-28h-151v48q-15 -18 -26 -28.5t-36 -23t-52 -12.5q-45 0 -81 33t-36 99v219q0 37 -29 37q-9 0 -25 -4z" />
    <glyph glyph-name="uni24B1" unicode="&#x24b1;" 
d="M990 380q0 -37 -5 -80.5t-20 -108t-49.5 -134.5t-85.5 -130l-9 5q24 42 40 76t39.5 94t36 131t12.5 147t-12.5 147t-36 131t-39.5 94t-40 76l9 5q51 -60 85.5 -130t49.5 -134.5t20 -108t5 -80.5zM721 529h-17q-33 0 -50 -42l-137 -348h-24l-151 338q-8 19 -16 30
t-16.5 15.5t-14 5.5t-16.5 1v28h193v-28q-13 0 -20 -1t-14 -6t-7 -16q0 -12 8 -29l97 -214l89 224q3 6 3 20q0 7 -1 11t-8 7.5t-20 3.5h-28v28h150v-28zM179 -68l-9 -5q-51 60 -85.5 130t-49.5 134.5t-20 108t-5 80.5t5 80.5t20 108t49.5 134.5t85.5 130l9 -5
q-24 -42 -40 -76t-39.5 -94t-36 -131t-12.5 -147t12.5 -147t36 -131t39.5 -94t40 -76z" />
    <glyph glyph-name="uni24B2" unicode="&#x24b2;" 
d="M990 380q0 -37 -5 -80.5t-20 -108t-49.5 -134.5t-85.5 -130l-9 5q24 42 40 76t39.5 94t36 131t12.5 147t-12.5 147t-36 131t-39.5 94t-40 76l9 5q51 -60 85.5 -130t49.5 -134.5t20 -108t5 -80.5zM822 529h-31q-28 0 -41 -36l-129 -354h-17l-111 287l-105 -287h-17
l-133 341q-9 23 -20.5 34.5t-19 13t-20.5 1.5v28h186v-28q-35 0 -35 -24q0 -15 7 -32l75 -193l67 186q-18 44 -29.5 53.5t-42.5 9.5v28h201v-28q-16 0 -23.5 -1t-14.5 -6.5t-7 -17.5q0 -8 4 -24l77 -200l72 199q5 15 5 21q0 29 -28 29h-29v28h159v-28zM179 -68l-9 -5
q-51 60 -85.5 130t-49.5 134.5t-20 108t-5 80.5t5 80.5t20 108t49.5 134.5t85.5 130l9 -5q-24 -42 -40 -76t-39.5 -94t-36 -131t-12.5 -147t12.5 -147t36 -131t39.5 -94t40 -76z" />
    <glyph glyph-name="uni24B3" unicode="&#x24b3;" 
d="M990 380q0 -37 -5 -80.5t-20 -108t-49.5 -134.5t-85.5 -130l-9 5q24 42 40 76t39.5 94t36 131t12.5 147t-12.5 147t-36 131t-39.5 94t-40 76l9 5q51 -60 85.5 -130t49.5 -134.5t20 -108t5 -80.5zM721 179h-224v28h18q11 0 19.5 6t8.5 17t-7 22l-59 86l-57 -76
q-9 -14 -9 -27t7 -19.5t14 -7.5t20 -1v-28h-173v28h18q20 0 46 16t39 33l79 106l-99 143q-15 22 -29.5 33.5t-22 13t-20.5 1.5v28h211v-28q-13 0 -20 -0.5t-14 -6t-7 -15.5q0 -12 8 -24l49 -70l50 68q9 13 9 28q0 9 -7.5 14t-14.5 5.5t-22 0.5v28h171v-28q-22 0 -34.5 -2
t-35 -17.5t-45.5 -46.5l-55 -74l109 -158q11 -15 32.5 -31.5t46.5 -16.5v-28zM179 -68l-9 -5q-51 60 -85.5 130t-49.5 134.5t-20 108t-5 80.5t5 80.5t20 108t49.5 134.5t85.5 130l9 -5q-24 -42 -40 -76t-39.5 -94t-36 -131t-12.5 -147t12.5 -147t36 -131t39.5 -94t40 -76z
" />
    <glyph glyph-name="uni24B4" unicode="&#x24b4;" 
d="M990 380q0 -37 -5 -80.5t-20 -108t-49.5 -134.5t-85.5 -130l-9 5q24 42 40 76t39.5 94t36 131t12.5 147t-12.5 147t-36 131t-39.5 94t-40 76l9 5q51 -60 85.5 -130t49.5 -134.5t20 -108t5 -80.5zM720 615q-21 0 -31 -2.5t-23 -17t-26 -46.5l-135 -335q-21 -50 -58.5 -81
t-81.5 -31q-27 0 -47 16.5t-20 44.5q0 26 16.5 42t41.5 16q16 0 27.5 -7t15.5 -14t10 -21q5 -13 15 -13q34 0 65 82l-135 311q-17 39 -30.5 47.5t-43.5 8.5v27h213v-27h-22q-27 0 -27 -27q0 -14 5 -29l86 -197l75 187q7 17 7 35q0 13 -10.5 22t-24.5 9h-30v27h168v-27z
M179 -68l-9 -5q-51 60 -85.5 130t-49.5 134.5t-20 108t-5 80.5t5 80.5t20 108t49.5 134.5t85.5 130l9 -5q-24 -42 -40 -76t-39.5 -94t-36 -131t-12.5 -147t12.5 -147t36 -131t39.5 -94t40 -76z" />
    <glyph glyph-name="uni24B5" unicode="&#x24b5;" 
d="M179 -68l-9 -5q-45 53 -77.5 116.5t-48 112.5t-24 103.5t-9.5 76.5t-1 44t1 44t9.5 76.5t24 103.5t48 112.5t77.5 116.5l9 -5q-24 -42 -40 -76t-39.5 -94t-36 -131t-12.5 -147t12.5 -147t36 -131t39.5 -94t40 -76zM830 -73l-9 5q24 42 40 76t39.5 94t36 131t12.5 147
t-12.5 147t-36 131t-39.5 94t-40 76l9 5q45 -53 77.5 -116.5t48 -112.5t24 -103.5t9.5 -76.5t1 -44t-1 -44t-9.5 -76.5t-24 -103.5t-48 -112.5t-77.5 -116.5zM332 460l44 121h302v-13l-248 -361h36q60 0 107.5 22t92.5 92l21 -11l-48 -131h-323v19l244 355h-50
q-37 0 -62.5 -7t-42.5 -24t-26 -31t-22 -42z" />
    <glyph glyph-name="uni24B6" unicode="&#x24b6;" 
d="M977 380q0 -197 -140 -337t-337 -140t-337 140t-140 337q0 131 64.5 241t174 173t238.5 63t238.5 -63t174 -173t64.5 -241zM951 380q0 188 -132.5 319.5t-318.5 131.5q-122 0 -226 -60t-164.5 -164t-60.5 -227q0 -122 60.5 -226t164.5 -164.5t226 -60.5q186 0 318.5 132
t132.5 319zM799 116h-261v26h37q37 0 37 32q0 12 -8 36l-40 115h-202l-40 -128q-5 -15 -5 -23q0 -15 12 -23.5t32 -8.5h36v-26h-196v26h24q53 0 72 63l156 499l74 11l176 -505q23 -68 77 -68h19v-26zM555 351l-98 280l-87 -280h185z" />
    <glyph glyph-name="uni24B7" unicode="&#x24b7;" 
d="M752 255q0 -66 -54 -116.5t-154 -50.5h-282v26h24q31 0 44.5 13t13.5 42v422q0 28 -13.5 41.5t-44.5 13.5h-24v26h279q80 0 129.5 -38.5t49.5 -91.5q0 -100 -135 -140q70 -8 110 -37q57 -40 57 -110zM616 533q0 57 -30.5 85t-75.5 28q-21 0 -30.5 -1t-21.5 -6
t-16.5 -16.5t-4.5 -31.5v-181h75q44 0 74 32t30 91zM650 252q0 60 -36 96t-88 36h-89v-215q0 -30 13.5 -42.5t43.5 -12.5h32q63 0 93.5 42t30.5 96zM977 380q0 -197 -140 -337t-337 -140t-337 140t-140 337q0 131 64.5 241t174 173t238.5 63t238.5 -63t174 -173t64.5 -241z
M951 380q0 188 -132.5 319.5t-318.5 131.5q-122 0 -226 -60t-164.5 -164t-60.5 -227q0 -122 60.5 -226t164.5 -164.5t226 -60.5q186 0 318.5 132t132.5 319z" />
    <glyph glyph-name="uni24B8" unicode="&#x24b8;" 
d="M977 380q0 -197 -140 -337t-337 -140t-337 140t-140 337q0 131 64.5 241t174 173t238.5 63t238.5 -63t174 -173t64.5 -241zM951 380q0 188 -132.5 319.5t-318.5 131.5q-122 0 -226 -60t-164.5 -164t-60.5 -227q0 -122 60.5 -226t164.5 -164.5t226 -60.5q186 0 318.5 132
t132.5 319zM744 250q-9 -19 -16 -32t-22 -37t-32.5 -40t-41 -33t-55 -26t-66.5 -9q-102 0 -176 76t-74 211q0 129 70.5 228t173.5 99q38 0 70 -11q33 -11 41 -11q24 0 53 22l61 -148l-22 -9q-78 133 -192 133q-59 0 -97 -40t-51.5 -92.5t-13.5 -114.5q0 -48 10 -93.5
t32 -88.5t64 -69.5t98 -26.5q104 0 163 124z" />
    <glyph glyph-name="uni24B9" unicode="&#x24b9;" 
d="M500 857q129 0 238.5 -63t174 -173t64.5 -241q0 -197 -140 -337t-337 -140t-337 140t-140 337q0 131 64.5 241t174 173t238.5 63zM500 831q-122 0 -226 -60t-164.5 -164t-60.5 -227q0 -122 60.5 -226t164.5 -164.5t226 -60.5q186 0 318.5 132t132.5 319
q0 188 -132.5 319.5t-318.5 131.5zM264 88v26h25q31 0 44 13.5t13 41.5v422q0 28 -13 41.5t-44 13.5h-25v26h233q136 0 216.5 -84.5t80.5 -210.5q0 -58 -18 -108.5t-53 -91.5t-94 -65t-135 -24h-230zM439 591v-422q0 -29 13.5 -42t43.5 -13q197 0 197 268q0 55 -8 98
t-19.5 70t-30.5 46.5t-34 29t-38.5 14.5t-35 5.5t-31.5 0.5q-32 0 -44.5 -13t-12.5 -42z" />
    <glyph glyph-name="uni24BA" unicode="&#x24ba;" 
d="M500 857q129 0 238.5 -63t174 -173t64.5 -241q0 -197 -140 -337t-337 -140t-337 140t-140 337q0 131 64.5 241t174 173t238.5 63zM500 831q-122 0 -226 -60t-164.5 -164t-60.5 -227q0 -122 60.5 -226t164.5 -164.5t226 -60.5q186 0 318.5 132t132.5 319
q0 188 -132.5 319.5t-318.5 131.5zM261 646v26h429l53 -132l-20 -10q-52 67 -90.5 91.5t-109.5 24.5h-28q-33 0 -45 -13.5t-12 -41.5v-192h70q40 0 68.5 18.5t28.5 60.5v19h26v-227h-26v21q0 31 -23 56.5t-66 25.5h-78v-204q0 -28 13 -41.5t44 -13.5h41q113 0 203 125
l19 -11l-53 -140h-444v26h25q31 0 44 13.5t13 41.5v422q0 28 -13 41.5t-44 13.5h-25z" />
    <glyph glyph-name="uni24BB" unicode="&#x24bb;" 
d="M977 380q0 -197 -140 -337t-337 -140t-337 140t-140 337q0 131 64.5 241t174 173t238.5 63t238.5 -63t174 -173t64.5 -241zM951 380q0 188 -132.5 319.5t-318.5 131.5q-122 0 -226 -60t-164.5 -164t-60.5 -227q0 -122 60.5 -226t164.5 -164.5t226 -60.5q186 0 318.5 132
t132.5 319zM763 534l-21 -10q-71 122 -199 122h-32q-32 0 -51.5 -18.5t-19.5 -50.5v-175h71q38 0 64.5 23.5t26.5 54.5v21h26v-227h-26v23q0 28 -22.5 53.5t-56.5 25.5h-83v-207q0 -29 13 -42t44 -13h36v-26h-277v26h34q57 0 57 55v412q0 29 -16.5 47t-47.5 18h-27v26h455z
" />
    <glyph glyph-name="uni24BC" unicode="&#x24bc;" 
d="M977 380q0 -197 -140 -337t-337 -140t-337 140t-140 337q0 131 64.5 241t174 173t238.5 63t238.5 -63t174 -173t64.5 -241zM951 380q0 188 -132.5 319.5t-318.5 131.5q-122 0 -226 -60t-164.5 -164t-60.5 -227q0 -122 60.5 -226t164.5 -164.5t226 -60.5q186 0 318.5 132
t132.5 319zM747 312q-21 0 -30.5 -1.5t-18 -12t-8.5 -32.5v-162q-11 8 -34 8q-16 0 -36 -8q-78 -31 -126 -31q-100 0 -171 84t-71 220q0 137 73 223.5t173 86.5q7 0 51 -7.5t53 -7.5q28 0 55 15l54 -153l-29 -10q-23 46 -51 77t-54 42t-40.5 14.5t-27.5 3.5
q-43 0 -74.5 -26.5t-46 -60.5t-23 -81.5t-10 -72.5t-1.5 -50q0 -69 16 -128.5t52 -101t87 -41.5q37 0 60 23.5t23 65.5v79q0 21 -13 33t-34 12h-39v25h241v-25z" />
    <glyph glyph-name="uni24BD" unicode="&#x24bd;" 
d="M977 380q0 -197 -140 -337t-337 -140t-337 140t-140 337q0 131 64.5 241t174 173t238.5 63t238.5 -63t174 -173t64.5 -241zM951 380q0 188 -132.5 319.5t-318.5 131.5q-122 0 -226 -60t-164.5 -164t-60.5 -227q0 -122 60.5 -226t164.5 -164.5t226 -60.5q186 0 318.5 132
t132.5 319zM799 88h-260v26h27q57 0 57 55v200h-246v-200q0 -30 13.5 -42.5t43.5 -12.5h27v-26h-260v26h26q30 0 43.5 13t13.5 42v422q0 29 -13.5 42t-43.5 13h-26v26h260v-26h-27q-33 0 -45 -13.5t-12 -41.5v-196h246v196q0 55 -57 55h-27v26h260v-26h-26q-33 0 -45 -13.5
t-12 -41.5v-422q0 -29 13 -42t44 -13h26v-26z" />
    <glyph glyph-name="uni24BE" unicode="&#x24be;" 
d="M977 380q0 -197 -140 -337t-337 -140t-337 140t-140 337q0 131 64.5 241t174 173t238.5 63t238.5 -63t174 -173t64.5 -241zM951 380q0 188 -132.5 319.5t-318.5 131.5q-122 0 -226 -60t-164.5 -164t-60.5 -227q0 -122 60.5 -226t164.5 -164.5t226 -60.5q186 0 318.5 132
t132.5 319zM633 88h-266v26h29q31 0 44.5 13t13.5 42v422q0 28 -13 41.5t-45 13.5h-29v26h266v-26h-30q-34 0 -45.5 -14t-11.5 -41v-422q0 -29 13.5 -42t44.5 -13h29v-26z" />
    <glyph glyph-name="uni24BF" unicode="&#x24bf;" 
d="M977 380q0 -197 -140 -337t-337 -140t-337 140t-140 337q0 131 64.5 241t174 173t238.5 63t238.5 -63t174 -173t64.5 -241zM951 380q0 188 -132.5 319.5t-318.5 131.5q-122 0 -226 -60t-164.5 -164t-60.5 -227q0 -122 60.5 -226t164.5 -164.5t226 -60.5q186 0 318.5 132
t132.5 319zM661 704h-27q-33 0 -45 -13.5t-12 -41.5v-456q0 -88 -53.5 -133t-119.5 -45q-31 0 -59 16.5t-28 52.5q0 27 16.5 42t42.5 15q53 0 55 -62q0 -15 2.5 -20t12.5 -5q38 0 38 86v509q0 28 -13 41.5t-44 13.5h-28v26h262v-26z" />
    <glyph glyph-name="uni24C0" unicode="&#x24c0;" 
d="M977 380q0 -197 -140 -337t-337 -140t-337 140t-140 337q0 131 64.5 241t174 173t238.5 63t238.5 -63t174 -173t64.5 -241zM951 380q0 188 -132.5 319.5t-318.5 131.5q-122 0 -226 -60t-164.5 -164t-60.5 -227q0 -122 60.5 -226t164.5 -164.5t226 -60.5q186 0 318.5 132
t132.5 319zM819 88h-273v26h19q16 0 26.5 8t10.5 20q0 16 -8 29l-129 220l-75 -80v-142q0 -29 13 -42t44 -13h25v-26h-252v26h20q30 0 43 13t13 42v422q0 28 -12.5 41.5t-43.5 13.5h-20v26h252v-26h-25q-32 0 -44.5 -13t-12.5 -42v-243l230 244q15 15 15 30q0 24 -31 24h-35
v26h231v-26h-35q-37 0 -60.5 -14t-58.5 -50l-113 -120l174 -298q30 -50 84 -50h28v-26z" />
    <glyph glyph-name="uni24C1" unicode="&#x24c1;" 
d="M977 380q0 -197 -140 -337t-337 -140t-337 140t-140 337q0 131 64.5 241t174 173t238.5 63t238.5 -63t174 -173t64.5 -241zM951 380q0 188 -132.5 319.5t-318.5 131.5q-122 0 -226 -60t-164.5 -164t-60.5 -227q0 -122 60.5 -226t164.5 -164.5t226 -60.5q186 0 318.5 132
t132.5 319zM790 234l-54 -146h-459v26h27q30 0 43.5 13t13.5 42v422q0 28 -13 41.5t-44 13.5h-27v26h262v-26h-28q-32 0 -44.5 -13t-12.5 -42v-422q0 -30 13.5 -42.5t43.5 -12.5h65q40 0 74 13.5t58.5 38.5t36 40t25.5 38z" />
    <glyph glyph-name="uni24C2" unicode="&#x24c2;" 
d="M500 857q129 0 238.5 -63t174 -173t64.5 -241q0 -197 -140 -337t-337 -140t-337 140t-140 337q0 131 64.5 241t174 173t238.5 63zM155 89v25h21q31 0 44 13.5t13 41.5v425q0 52 -76 52v26h166l171 -440l152 440h197v-26h-27q-32 0 -44.5 -13t-12.5 -42v-422q0 -29 13 -42
t44 -13h29v-25q106 127 106 291q0 188 -132.5 319.5t-318.5 131.5q-122 0 -226 -60t-164.5 -164t-60.5 -227q0 -166 106 -291zM472 88h-25l-188 481v-400q0 -28 13 -41.5t44 -13.5h20v-26h-180q64 -74 153.5 -116.5t190.5 -42.5t191 42.5t153 116.5h-263v26h28q30 0 43.5 13
t13.5 42v481z" />
    <glyph glyph-name="uni24C3" unicode="&#x24c3;" 
d="M500 857q129 0 238.5 -63t174 -173t64.5 -241q0 -197 -140 -337t-337 -140t-337 140t-140 337q0 131 64.5 241t174 173t238.5 63zM500 831q-122 0 -226 -60t-164.5 -164t-60.5 -227q0 -122 60.5 -226t164.5 -164.5t226 -60.5q186 0 318.5 132t132.5 319
q0 188 -132.5 319.5t-318.5 131.5zM705 88h-18l-354 496v-403q0 -29 15.5 -48t45.5 -19h22v-26h-191v26h20q63 0 63 67v414q0 51 -72 51h-17v26h167l294 -412v315q0 25 -6.5 40.5t-19.5 21.5t-22.5 7.5t-27.5 1.5v26h177v-26q-76 0 -76 -71v-487z" />
    <glyph glyph-name="uni24C4" unicode="&#x24c4;" 
d="M977 380q0 -197 -140 -337t-337 -140t-337 140t-140 337q0 131 64.5 241t174 173t238.5 63t238.5 -63t174 -173t64.5 -241zM951 380q0 188 -132.5 319.5t-318.5 131.5q-122 0 -226 -60t-164.5 -164t-60.5 -227q0 -122 60.5 -226t164.5 -164.5t226 -60.5q186 0 318.5 132
t132.5 319zM761 380q0 -76 -26 -137.5t-66 -97t-84 -54t-85 -18.5q-42 0 -85.5 18.5t-84 54t-66 97t-25.5 137.5t26 137.5t66 97t84 54t85 18.5t85 -18.5t84 -54t66 -97t26 -137.5zM658 387q0 113 -44 194.5t-114 81.5q-63 0 -110 -74.5t-47 -208.5q0 -123 44 -203t113 -80
q70 0 114 81.5t44 208.5z" />
    <glyph glyph-name="uni24C5" unicode="&#x24c5;" 
d="M977 380q0 -197 -140 -337t-337 -140t-337 140t-140 337q0 131 64.5 241t174 173t238.5 63t238.5 -63t174 -173t64.5 -241zM951 380q0 188 -132.5 319.5t-318.5 131.5q-122 0 -226 -60t-164.5 -164t-60.5 -227q0 -122 60.5 -226t164.5 -164.5t226 -60.5q186 0 318.5 132
t132.5 319zM786 520q0 -72 -64 -113.5t-152 -41.5h-114v-196q0 -28 13 -41.5t44 -13.5h25v-26h-257v26h25q30 0 43.5 13t13.5 42v422q0 28 -13 41.5t-44 13.5h-25v26h283q103 0 162.5 -40t59.5 -112zM682 523q0 123 -113 123h-56q-32 0 -44.5 -13t-12.5 -42v-200h122
q58 0 81 39.5t23 92.5z" />
    <glyph glyph-name="uni24C6" unicode="&#x24c6;" 
d="M762 93l11 -18q-64 -46 -132 -46q-31 0 -51.5 7.5t-32 23.5t-16 27t-10.5 32q-12 -2 -32 -2q-40 0 -83.5 18.5t-84 53.5t-66.5 96.5t-26 138.5q0 76 25.5 137t65.5 97t84 54.5t86 18.5t86 -18.5t84 -54.5t65.5 -97t25.5 -137q0 -54 -13.5 -100.5t-30 -74.5t-43 -53
t-40 -33.5t-33.5 -20.5q10 -19 24.5 -32.5t26 -20t25 -10t18 -4t8.5 -0.5q31 0 59 18zM589 187q69 85 69 237q0 124 -45 203.5t-113 79.5q-69 0 -113.5 -80.5t-44.5 -204.5q0 -111 40 -191q13 71 88 71q25 0 45 -8.5t31.5 -19t21 -30t12.5 -29zM529 145v4q0 60 -14.5 92.5
t-52.5 32.5q-27 0 -43.5 -16.5t-16.5 -35.5q0 -27 29.5 -54.5t68.5 -27.5q12 0 29 5zM500 857q129 0 238.5 -63t174 -173t64.5 -241q0 -197 -140 -337t-337 -140t-337 140t-140 337q0 131 64.5 241t174 173t238.5 63zM500 831q-122 0 -226 -60t-164.5 -164t-60.5 -227
q0 -122 60.5 -226t164.5 -164.5t226 -60.5q186 0 318.5 132t132.5 319q0 188 -132.5 319.5t-318.5 131.5z" />
    <glyph glyph-name="uni24C7" unicode="&#x24c7;" 
d="M977 380q0 -197 -140 -337t-337 -140t-337 140t-140 337q0 131 64.5 241t174 173t238.5 63t238.5 -63t174 -173t64.5 -241zM951 380q0 188 -132.5 319.5t-318.5 131.5q-122 0 -226 -60t-164.5 -164t-60.5 -227q0 -122 60.5 -226t164.5 -164.5t226 -60.5q186 0 318.5 132
t132.5 319zM794 88h-159l-144 283h-71v-202q0 -28 13 -41.5t44 -13.5h26v-26h-258v26h25q30 0 43.5 13t13.5 42v422q0 28 -13 41.5t-44 13.5h-25v26h315q93 0 143.5 -38t50.5 -103q0 -64 -53 -109q-38 -31 -106 -46l95 -187q14 -27 26.5 -43t26.5 -22.5t23.5 -8t27.5 -1.5
v-26zM651 532q0 114 -118 114h-56q-32 0 -44.5 -13t-12.5 -42v-194h113q60 0 89 38t29 97z" />
    <glyph glyph-name="uni24C8" unicode="&#x24c8;" 
d="M977 380q0 -197 -140 -337t-337 -140t-337 140t-140 337q0 131 64.5 241t174 173t238.5 63t238.5 -63t174 -173t64.5 -241zM951 380q0 188 -132.5 319.5t-318.5 131.5q-122 0 -226 -60t-164.5 -164t-60.5 -227q0 -122 60.5 -226t164.5 -164.5t226 -60.5q186 0 318.5 132
t132.5 319zM709 253q0 -74 -52.5 -127t-134.5 -53q-40 0 -79 12q-24 8 -31 8q-30 0 -72 -20l-54 160l23 9q7 -16 24 -38t43.5 -47t64 -41.5t77.5 -16.5q58 0 91 35t33 79t-34.5 70.5t-120.5 59.5q-24 9 -39.5 16t-42.5 23t-43 34t-29 46.5t-13 62.5q0 64 44 113t124 49
q22 0 82 -12q15 -3 20 -3q21 0 51 15l49 -141l-23 -9q-23 49 -59.5 79t-64 37.5t-55.5 7.5q-49 0 -79 -27t-30 -72q0 -44 32.5 -70.5t111.5 -56.5q97 -36 141.5 -75t44.5 -107z" />
    <glyph glyph-name="uni24C9" unicode="&#x24c9;" 
d="M977 380q0 -197 -140 -337t-337 -140t-337 140t-140 337q0 131 64.5 241t174 173t238.5 63t238.5 -63t174 -173t64.5 -241zM951 380q0 188 -132.5 319.5t-318.5 131.5q-122 0 -226 -60t-164.5 -164t-60.5 -227q0 -122 60.5 -226t164.5 -164.5t226 -60.5q186 0 318.5 132
t132.5 319zM785 497l-23 -10q-37 71 -73.5 102t-89.5 31q-30 0 -40.5 -12.5t-10.5 -42.5v-412q0 -65 57 -65h44v-26h-298v26h44q57 0 57 65v412q0 32 -11.5 43.5t-43.5 11.5q-31 0 -57 -12.5t-46 -36t-31 -40.5t-25 -44l-23 10l57 149h456z" />
    <glyph glyph-name="uni24CA" unicode="&#x24ca;" 
d="M977 380q0 -197 -140 -337t-337 -140t-337 140t-140 337q0 131 64.5 241t174 173t238.5 63t238.5 -63t174 -173t64.5 -241zM951 380q0 188 -132.5 319.5t-318.5 131.5q-122 0 -226 -60t-164.5 -164t-60.5 -227q0 -122 60.5 -226t164.5 -164.5t226 -60.5q186 0 318.5 132
t132.5 319zM781 620h-27q-57 0 -57 -66v-314q0 -83 -48 -138t-147 -55q-84 0 -141.5 48t-57.5 153v317q0 28 -13 41.5t-44 13.5h-27v26h262v-26h-28q-32 0 -44.5 -13t-12.5 -42v-305q0 -87 39.5 -134t100.5 -47q59 0 97 44.5t38 113.5v317q0 66 -59 66h-19v26h188v-26z" />
    <glyph glyph-name="uni24CB" unicode="&#x24cb;" 
d="M977 380q0 -197 -140 -337t-337 -140t-337 140t-140 337q0 131 64.5 241t174 173t238.5 63t238.5 -63t174 -173t64.5 -241zM951 380q0 188 -132.5 319.5t-318.5 131.5q-122 0 -226 -60t-164.5 -164t-60.5 -227q0 -122 60.5 -226t164.5 -164.5t226 -60.5q186 0 318.5 132
t132.5 319zM773 620h-20q-45 0 -70 -69l-181 -504h-18l-172 510q-10 29 -26.5 44t-28 17t-30.5 2v26h248v-26h-32q-38 0 -38 -34q0 -18 4 -28l121 -357l125 350q10 28 10 39q0 13 -11.5 21.5t-25.5 8.5h-41v26h186v-26z" />
    <glyph glyph-name="uni24CC" unicode="&#x24cc;" 
d="M977 380q0 -197 -140 -337t-337 -140t-337 140t-140 337q0 131 64.5 241t174 173t238.5 63t238.5 -63t174 -173t64.5 -241zM951 380q0 188 -132.5 319.5t-318.5 131.5q-122 0 -226 -60t-164.5 -164t-60.5 -227q0 -122 60.5 -226t164.5 -164.5t226 -60.5q186 0 318.5 132
t132.5 319zM871 610h-17q-25 0 -46 -19t-28 -48l-130 -506h-21l-137 482l-125 -482h-20l-144 515q-10 36 -24.5 47t-49.5 11v26h237v-26h-25q-43 0 -43 -35q0 -12 10 -46l83 -299l86 335q-9 24 -23 34.5t-42 10.5h-21v26h250v-26h-26q-14 0 -25 -8.5t-11 -22.5q0 -17 7 -42
l87 -307l80 313q5 20 5 37q0 9 -2.5 14.5t-14 10.5t-32.5 5h-22v26h184v-26z" />
    <glyph glyph-name="uni24CD" unicode="&#x24cd;" 
d="M977 380q0 -197 -140 -337t-337 -140t-337 140t-140 337q0 131 64.5 241t174 173t238.5 63t238.5 -63t174 -173t64.5 -241zM951 380q0 188 -132.5 319.5t-318.5 131.5q-122 0 -226 -60t-164.5 -164t-60.5 -227q0 -122 60.5 -226t164.5 -164.5t226 -60.5q186 0 318.5 132
t132.5 319zM775 88h-275v26h30q15 0 24 8t9 19q0 9 -8 25l-85 167l-109 -157q-13 -17 -13 -35q0 -27 36 -27h40v-26h-199v26h18q25 0 43.5 13t43.5 49l127 183l-113 220q-20 39 -37.5 53t-42.5 14h-19v26h258v-26h-29q-14 0 -24.5 -8t-10.5 -20q0 -11 15 -41l65 -127l91 131
q14 20 14 36q0 29 -36 29h-26v26h193v-26q-23 0 -37 -2.5t-35 -17.5t-42 -45l-109 -157l125 -245q18 -36 40 -50.5t55 -14.5h23v-26z" />
    <glyph glyph-name="uni24CE" unicode="&#x24ce;" 
d="M977 380q0 -197 -140 -337t-337 -140t-337 140t-140 337q0 131 64.5 241t174 173t238.5 63t238.5 -63t174 -173t64.5 -241zM951 380q0 188 -132.5 319.5t-318.5 131.5q-122 0 -226 -60t-164.5 -164t-60.5 -227q0 -122 60.5 -226t164.5 -164.5t226 -60.5q186 0 318.5 132
t132.5 319zM799 620h-29q-27 0 -44.5 -16t-34.5 -46l-141 -255v-160q0 -29 13 -42t44 -13h43v-26h-294v26h44q30 0 43.5 12.5t13.5 42.5v155l-160 268q-19 31 -35 42.5t-44 11.5h-17v26h268v-26h-38q-32 0 -32 -26q0 -16 8 -28l135 -227l120 219q8 15 8 30q0 14 -10 23
t-25 9h-39v26h203v-26z" />
    <glyph glyph-name="uni24CF" unicode="&#x24cf;" 
d="M500 857q129 0 238.5 -63t174 -173t64.5 -241q0 -197 -140 -337t-337 -140t-337 140t-140 337q0 131 64.5 241t174 173t238.5 63zM500 831q-122 0 -226 -60t-164.5 -164t-60.5 -227q0 -122 60.5 -226t164.5 -164.5t226 -60.5q186 0 318.5 132t132.5 319
q0 188 -132.5 319.5t-318.5 131.5zM732 672v-13l-351 -545h118q44 0 83 15t70 42.5t44 42t32 38.5l18 -15l-52 -149h-436v10l351 548h-113q-42 0 -75.5 -11t-58 -32.5t-37.5 -36.5t-30 -40l-20 12l53 134h404z" />
    <glyph glyph-name="uni24D0" unicode="&#x24d0;" 
d="M977 380q0 -197 -140 -337t-337 -140t-337 140t-140 337q0 131 64.5 241t174 173t238.5 63t238.5 -63t174 -173t64.5 -241zM951 380q0 188 -132.5 319.5t-318.5 131.5q-122 0 -226 -60t-164.5 -164t-60.5 -227q0 -122 60.5 -226t164.5 -164.5t226 -60.5q186 0 318.5 132
t132.5 319zM696 229q-30 -53 -84 -53q-48 0 -67 42q-57 -42 -116 -42q-49 0 -73 25.5t-24 57.5q0 33 28 64q24 27 60 47t59.5 27.5t61.5 16.5v100q0 49 -47 49q-20 0 -31.5 -9t-13.5 -17.5t-3 -20.5q-3 -62 -50 -62q-23 0 -37 14t-14 34q0 38 41.5 60t109.5 22q93 0 117 -36
q11 -16 11 -61v-210q0 -56 31 -56q16 0 31 15zM541 237v154q-17 -8 -23.5 -11t-28 -15.5t-32.5 -24t-21.5 -30.5t-10.5 -40q0 -52 60 -52q32 0 56 19z" />
    <glyph glyph-name="uni24D1" unicode="&#x24d1;" 
d="M500 857q129 0 238.5 -63t174 -173t64.5 -241q0 -197 -140 -337t-337 -140t-337 140t-140 337q0 131 64.5 241t174 173t238.5 63zM500 831q-122 0 -226 -60t-164.5 -164t-60.5 -227q0 -122 60.5 -226t164.5 -164.5t226 -60.5q186 0 318.5 132t132.5 319
q0 188 -132.5 319.5t-318.5 131.5zM293 658l139 29v-240q47 35 104 35q84 0 127.5 -62t43.5 -137q0 -48 -17.5 -94t-60 -81t-101.5 -35q-50 0 -92 33l-73 -33h-13v535q0 34 -26 34q-7 0 -27 -5zM432 412v-270q28 -30 76 -30q106 0 106 172q0 18 -2.5 37t-12 50.5t-34.5 51.5
t-62 20q-40 0 -71 -31z" />
    <glyph glyph-name="uni24D2" unicode="&#x24d2;" 
d="M977 380q0 -197 -140 -337t-337 -140t-337 140t-140 337q0 131 64.5 241t174 173t238.5 63t238.5 -63t174 -173t64.5 -241zM951 380q0 188 -132.5 319.5t-318.5 131.5q-122 0 -226 -60t-164.5 -164t-60.5 -227q0 -122 60.5 -226t164.5 -164.5t226 -60.5q186 0 318.5 132
t132.5 319zM661 272q-14 -19 -24 -31t-30.5 -29.5t-47.5 -26.5t-59 -9q-77 0 -123.5 54t-46.5 139q0 38 11 74.5t33 69t61.5 52t91.5 19.5q47 0 82.5 -19t35.5 -61q0 -23 -16.5 -37.5t-36.5 -14.5q-18 0 -31 11t-13 30q0 2 1 14.5t1 15.5q0 13 -11 24t-30 11
q-45 0 -66.5 -52.5t-21.5 -114.5q0 -75 32 -123.5t84 -48.5q53 0 105 70z" />
    <glyph glyph-name="uni24D3" unicode="&#x24d3;" 
d="M500 857q129 0 238.5 -63t174 -173t64.5 -241q0 -197 -140 -337t-337 -140t-337 140t-140 337q0 131 64.5 241t174 173t238.5 63zM500 831q-122 0 -226 -60t-164.5 -164t-60.5 -227q0 -122 60.5 -226t164.5 -164.5t226 -60.5q186 0 318.5 132t132.5 319
q0 188 -132.5 319.5t-318.5 131.5zM702 88h-150v33q-35 -48 -98 -48q-73 0 -115.5 62t-42.5 143q0 86 46.5 145t121.5 58q47 0 88 -32v154q0 32 -32 32q-10 0 -39 -9l-7 18l163 43v-533q0 -40 42 -40h23v-26zM552 150v270q-25 27 -63 27q-39 0 -64 -30.5t-32.5 -66
t-7.5 -75.5q0 -72 27 -116.5t71 -44.5q35 0 69 36z" />
    <glyph glyph-name="uni24D4" unicode="&#x24d4;" 
d="M977 380q0 -197 -140 -337t-337 -140t-337 140t-140 337q0 131 64.5 241t174 173t238.5 63t238.5 -63t174 -173t64.5 -241zM951 380q0 188 -132.5 319.5t-318.5 131.5q-122 0 -226 -60t-164.5 -164t-60.5 -227q0 -122 60.5 -226t164.5 -164.5t226 -60.5q186 0 318.5 132
t132.5 319zM664 280q-12 -19 -21.5 -30.5t-30 -32t-48.5 -31t-62 -10.5q-76 0 -128.5 54.5t-52.5 141.5q0 88 53 150t123 62q60 0 104 -50.5t50 -132.5h-243v-15q0 -76 33 -122.5t84 -46.5q26 0 53 16.5t38.5 28.5t28.5 34zM565 427q-1 25 -2.5 41t-7.5 40.5t-20.5 37
t-37.5 12.5q-73 0 -87 -131h155z" />
    <glyph glyph-name="uni24D5" unicode="&#x24d5;" 
d="M977 380q0 -197 -140 -337t-337 -140t-337 140t-140 337q0 131 64.5 241t174 173t238.5 63t238.5 -63t174 -173t64.5 -241zM951 380q0 188 -132.5 319.5t-318.5 131.5q-122 0 -226 -60t-164.5 -164t-60.5 -227q0 -122 60.5 -226t164.5 -164.5t226 -60.5q186 0 318.5 132
t132.5 319zM674 631q0 -22 -12.5 -36t-35.5 -14q-18 0 -28.5 7.5t-13 15.5t-5.5 23q-4 23 -22 23q-21 0 -33.5 -26t-12.5 -66v-92h117v-25h-117v-272q0 -30 12 -42.5t45 -12.5h20v-26h-238v26h20q29 0 43 12.5t14 42.5v272h-81v25h81q0 221 174 221q73 0 73 -56z" />
    <glyph glyph-name="uni24D6" unicode="&#x24d6;" 
d="M729 602q0 -19 -10.5 -34t-32.5 -15q-14 0 -20 5.5t-16 21.5q-8 12 -18 12q-4 0 -11 -5q34 -42 34 -85q0 -60 -47.5 -98.5t-110.5 -38.5q-27 0 -51 7q-26 -9 -26 -25q0 -21 94 -28q97 -8 140.5 -30t43.5 -65q0 -36 -26.5 -60t-70 -32.5t-68 -11t-51.5 -2.5
q-180 0 -180 76q0 18 9 30t27 19t29 10t32 6q-57 16 -57 59q0 46 79 64q-81 44 -81 123q0 59 46 98t109 39q58 0 106 -36q25 28 40 38.5t32 10.5q21 0 38.5 -14.5t17.5 -38.5zM569 500q0 16 -2 32t-8.5 37t-21.5 34t-37 13q-38 0 -55.5 -34t-17.5 -81t16.5 -78.5t52.5 -31.5
q35 0 54 30t19 79zM628 194q0 43 -117 54q-3 0 -34.5 1.5t-37.5 2.5q-71 -17 -71 -58q0 -50 120 -50q70 0 105 14t35 36zM977 380q0 -197 -140 -337t-337 -140t-337 140t-140 337q0 131 64.5 241t174 173t238.5 63t238.5 -63t174 -173t64.5 -241zM951 380
q0 188 -132.5 319.5t-318.5 131.5q-122 0 -226 -60t-164.5 -164t-60.5 -227q0 -122 60.5 -226t164.5 -164.5t226 -60.5q186 0 318.5 132t132.5 319z" />
    <glyph glyph-name="uni24D7" unicode="&#x24d7;" 
d="M500 857q129 0 238.5 -63t174 -173t64.5 -241q0 -197 -140 -337t-337 -140t-337 140t-140 337q0 131 64.5 241t174 173t238.5 63zM500 831q-122 0 -226 -60t-164.5 -164t-60.5 -227q0 -122 60.5 -226t164.5 -164.5t226 -60.5q186 0 318.5 132t132.5 319
q0 188 -132.5 319.5t-318.5 131.5zM293 88v26q19 0 27.5 1.5t16 11t7.5 29.5v458q0 6 -1.5 12t-8.5 12t-17 6q-6 0 -27 -3l-5 20l141 26v-275q64 70 128 70q43 0 70.5 -32.5t27.5 -84.5v-210q0 -41 36 -41h19v-26h-139v276q0 37 -19 52.5t-38 15.5q-43 0 -85 -52v-224
q0 -19 10.5 -29t20 -11.5t24.5 -1.5v-26h-188z" />
    <glyph glyph-name="uni24D8" unicode="&#x24d8;" 
d="M500 857q129 0 238.5 -63t174 -173t64.5 -241q0 -197 -140 -337t-337 -140t-337 140t-140 337q0 131 64.5 241t174 173t238.5 63zM500 831q-122 0 -226 -60t-164.5 -164t-60.5 -227q0 -122 60.5 -226t164.5 -164.5t226 -60.5q186 0 318.5 132t132.5 319
q0 188 -132.5 319.5t-318.5 131.5zM500 687q23 0 40 -16.5t17 -40.5q0 -23 -17 -40t-40 -17q-24 0 -40.5 17t-16.5 40q0 24 17 40.5t40 16.5zM390 88v26h29q19 0 29.5 11.5t10.5 31.5v237q0 40 -30 40q-14 0 -27 -5l-6 20l145 33v-325q0 -43 44 -43h25v-26h-220z" />
    <glyph glyph-name="uni24D9" unicode="&#x24d9;" 
d="M500 857q129 0 238.5 -63t174 -173t64.5 -241q0 -197 -140 -337t-337 -140t-337 140t-140 337q0 131 64.5 241t174 173t238.5 63zM500 831q-122 0 -226 -60t-164.5 -164t-60.5 -227q0 -122 60.5 -226t164.5 -164.5t226 -60.5q186 0 318.5 132t132.5 319
q0 188 -132.5 319.5t-318.5 131.5zM522 745q23 0 40 -16.5t17 -40.5t-17 -40.5t-40 -16.5q-24 0 -40.5 17t-16.5 40t16.5 40t40.5 17zM414 491l-5 19l154 29v-369q0 -40 -9.5 -72t-39.5 -57.5t-80 -25.5q-87 0 -87 60q0 23 14.5 38t37.5 15q42 0 46 -49q0 -27 18 -27t18 42
v358q0 42 -40 42q-18 0 -27 -3z" />
    <glyph glyph-name="uni24DA" unicode="&#x24da;" 
d="M500 857q129 0 238.5 -63t174 -173t64.5 -241q0 -197 -140 -337t-337 -140t-337 140t-140 337q0 131 64.5 241t174 173t238.5 63zM500 831q-122 0 -226 -60t-164.5 -164t-60.5 -227q0 -122 60.5 -226t164.5 -164.5t226 -60.5q186 0 318.5 132t132.5 319
q0 188 -132.5 319.5t-318.5 131.5zM576 386l-32 -34l95 -175q16 -29 34 -44t27.5 -17t24.5 -2v-26h-193v26q28 0 28 21q0 9 -8 25l-66 126l-34 -38v-94q0 -14 4.5 -23t13.5 -12t15.5 -4t17.5 -1v-26h-182v26q15 0 23 1.5t16.5 10.5t8.5 28v456q0 36 -25 36q-11 0 -27 -4
l-6 21l141 24v-398l98 109q12 14 12 26q0 17 -22 17h-39v25h209v-25h-30q-51 0 -104 -55z" />
    <glyph glyph-name="uni24DB" unicode="&#x24db;" 
d="M500 857q129 0 238.5 -63t174 -173t64.5 -241q0 -197 -140 -337t-337 -140t-337 140t-140 337q0 131 64.5 241t174 173t238.5 63zM500 831q-122 0 -226 -60t-164.5 -164t-60.5 -227q0 -122 60.5 -226t164.5 -164.5t226 -60.5q186 0 318.5 132t132.5 319
q0 188 -132.5 319.5t-318.5 131.5zM394 88v26q24 0 36 2.5t20.5 15t8.5 37.5v439q0 36 -24 36q-8 0 -25 -6l-6 18l137 31v-518q0 -35 15.5 -45t49.5 -10v-26h-212z" />
    <glyph glyph-name="uni24DC" unicode="&#x24dc;" 
d="M500 857q129 0 238.5 -63t174 -173t64.5 -241q0 -197 -140 -337t-337 -140t-337 140t-140 337q0 131 64.5 241t174 173t238.5 63zM500 831q-122 0 -226 -60t-164.5 -164t-60.5 -227q0 -122 60.5 -226t164.5 -164.5t226 -60.5q186 0 318.5 132t132.5 319
q0 188 -132.5 319.5t-318.5 131.5zM171 550l145 34v-56q16 18 27.5 27.5t35.5 19t54 9.5q84 0 108 -76q17 23 28 36t37 26.5t58 13.5q31 0 53 -12.5t32 -33.5t13.5 -40t3.5 -40v-193q0 -32 12 -40t46 -8v-26h-140v272q0 36 -17 51.5t-40 15.5q-56 0 -86 -76v-189
q0 -31 11.5 -39.5t42.5 -8.5v-26h-136v272q0 44 -15.5 58t-42.5 14q-49 0 -85 -55v-215q0 -31 11.5 -39.5t45.5 -8.5v-26h-197v26q36 0 47 8t11 40v240q0 33 -29 33q-14 0 -29 -6z" />
    <glyph glyph-name="uni24DD" unicode="&#x24dd;" 
d="M500 857q129 0 238.5 -63t174 -173t64.5 -241q0 -197 -140 -337t-337 -140t-337 140t-140 337q0 131 64.5 241t174 173t238.5 63zM500 831q-122 0 -226 -60t-164.5 -164t-60.5 -227q0 -122 60.5 -226t164.5 -164.5t226 -60.5q186 0 318.5 132t132.5 319
q0 188 -132.5 319.5t-318.5 131.5zM293 191v26q18 0 26.5 1.5t16 11t7.5 29.5v252q0 30 -27 30q-5 0 -26 -3l-5 20l141 26v-69q63 69 128 69q42 0 70 -32.5t28 -83.5v-210q0 -41 36 -41h19v-26h-139v275q0 35 -18 52t-40 17q-42 0 -84 -52v-224q0 -19 10 -29t19.5 -11.5
t25.5 -1.5v-26h-188z" />
    <glyph glyph-name="uni24DE" unicode="&#x24de;" 
d="M977 380q0 -197 -140 -337t-337 -140t-337 140t-140 337q0 131 64.5 241t174 173t238.5 63t238.5 -63t174 -173t64.5 -241zM951 380q0 188 -132.5 319.5t-318.5 131.5q-122 0 -226 -60t-164.5 -164t-60.5 -227q0 -122 60.5 -226t164.5 -164.5t226 -60.5q186 0 318.5 132
t132.5 319zM677 380q0 -85 -53 -144.5t-124 -59.5t-124 59.5t-53 144.5q0 83 52.5 143.5t124.5 60.5t124.5 -60.5t52.5 -143.5zM584 391q0 57 -7 93.5t-20.5 52.5t-26 21t-30.5 5q-45 0 -64.5 -39.5t-19.5 -154.5q0 -58 7.5 -95.5t21.5 -52.5t26 -19.5t30 -4.5q45 0 64 40.5
t19 153.5z" />
    <glyph glyph-name="uni24DF" unicode="&#x24df;" 
d="M500 857q129 0 238.5 -63t174 -173t64.5 -241q0 -197 -140 -337t-337 -140t-337 140t-140 337q0 131 64.5 241t174 173t238.5 63zM500 831q-122 0 -226 -60t-164.5 -164t-60.5 -227q0 -122 60.5 -226t164.5 -164.5t226 -60.5q186 0 318.5 132t132.5 319
q0 188 -132.5 319.5t-318.5 131.5zM457 650v-54q15 16 24 24t32 19t49 11q65 0 107 -55.5t42 -145.5q0 -93 -45.5 -150.5t-107.5 -57.5q-25 0 -46 10t-31 19.5t-24 25.5v-89q0 -35 12.5 -45.5t49.5 -10.5v-25h-208v25q35 0 48.5 11t13.5 45v346q0 47 -30 47q-8 0 -32 -6
l-6 16zM457 542v-203q36 -57 82 -57q40 0 60.5 37.5t20.5 127.5q0 162 -79 162q-58 0 -84 -67z" />
    <glyph glyph-name="uni24E0" unicode="&#x24e0;" 
d="M500 857q129 0 238.5 -63t174 -173t64.5 -241q0 -197 -140 -337t-337 -140t-337 140t-140 337q0 131 64.5 241t174 173t238.5 63zM500 831q-122 0 -226 -60t-164.5 -164t-60.5 -227q0 -122 60.5 -226t164.5 -164.5t226 -60.5q186 0 318.5 132t132.5 319
q0 188 -132.5 319.5t-318.5 131.5zM485 126v25q20 0 29.5 1t19.5 6t13.5 17t3.5 32v86q-14 -17 -23 -25.5t-30.5 -17.5t-49.5 -9q-72 0 -111.5 57.5t-39.5 136.5q0 94 49.5 154.5t118.5 60.5q45 0 87 -31l72 31h9v-443q0 -20 3.5 -32t14 -17t19.5 -6t29 -1v-25h-214z
M551 334v250q-35 35 -69 35q-46 0 -70 -48.5t-24 -128.5q0 -162 84 -162q41 0 79 54z" />
    <glyph glyph-name="uni24E1" unicode="&#x24e1;" 
d="M500 857q129 0 238.5 -63t174 -173t64.5 -241q0 -197 -140 -337t-337 -140t-337 140t-140 337q0 131 64.5 241t174 173t238.5 63zM500 831q-122 0 -226 -60t-164.5 -164t-60.5 -227q0 -122 60.5 -226t164.5 -164.5t226 -60.5q186 0 318.5 132t132.5 319
q0 188 -132.5 319.5t-318.5 131.5zM499 584v-76q16 22 28 34.5t41 27t64 14.5q74 0 74 -58q0 -25 -14.5 -42.5t-43.5 -17.5q-23 0 -38 13t-16 35q0 11 -2.5 15.5t-11.5 4.5q-23 0 -45.5 -29t-35.5 -63v-170q0 -28 13 -41.5t44 -13.5h21v-26h-235v26q19 0 28 1t21.5 5.5
t17.5 16.5t5 32v211q0 29 -6.5 40t-26.5 11q-15 0 -32 -5l-6 16z" />
    <glyph glyph-name="uni24E2" unicode="&#x24e2;" 
d="M977 380q0 -197 -140 -337t-337 -140t-337 140t-140 337q0 131 64.5 241t174 173t238.5 63t238.5 -63t174 -173t64.5 -241zM951 380q0 188 -132.5 319.5t-318.5 131.5q-122 0 -226 -60t-164.5 -164t-60.5 -227q0 -122 60.5 -226t164.5 -164.5t226 -60.5q186 0 318.5 132
t132.5 319zM648 296q0 -57 -37 -88.5t-86 -31.5q-22 0 -46 6q-2 0 -22.5 5t-22.5 5q-17 0 -49 -16l-41 127l29 11q19 -38 36 -55q49 -49 112 -49q25 0 44.5 14.5t19.5 39.5q0 21 -18 37t-85 49q-59 29 -86 58t-27 69q0 42 29 74.5t80 32.5q19 0 48 -8q23 -7 35 -7
q25 0 47 15l35 -123l-23 -8q-45 103 -132 103q-55 0 -55 -46q0 -20 17 -36t75 -44q71 -35 97 -63t26 -71z" />
    <glyph glyph-name="uni24E3" unicode="&#x24e3;" 
d="M500 857q129 0 238.5 -63t174 -173t64.5 -241q0 -197 -140 -337t-337 -140t-337 140t-140 337q0 131 64.5 241t174 173t238.5 63zM500 831q-122 0 -226 -60t-164.5 -164t-60.5 -227q0 -122 60.5 -226t164.5 -164.5t226 -60.5q186 0 318.5 132t132.5 319
q0 188 -132.5 319.5t-318.5 131.5zM434 482h-63v26q58 6 84 34q15 16 26 40t11 41v22h25v-137h110v-26h-110v-267q0 -31 14 -43t30 -12q23 0 59 34l16 -18q-19 -20 -30.5 -30t-34 -20.5t-47.5 -10.5q-41 0 -65.5 26t-24.5 74v267z" />
    <glyph glyph-name="uni24E4" unicode="&#x24e4;" 
d="M500 857q129 0 238.5 -63t174 -173t64.5 -241q0 -197 -140 -337t-337 -140t-337 140t-140 337q0 131 64.5 241t174 173t238.5 63zM500 831q-122 0 -226 -60t-164.5 -164t-60.5 -227q0 -122 60.5 -226t164.5 -164.5t226 -60.5q186 0 318.5 132t132.5 319
q0 188 -132.5 319.5t-318.5 131.5zM298 537l-6 19l139 28v-278q0 -32 15 -53t48 -21q24 0 39 10t34 32v237q0 32 -24 32q-4 0 -34 -6l-7 18l147 29v-325q0 -42 36 -42h23v-26h-141v45q-51 -60 -108 -60q-41 0 -75.5 30.5t-34.5 93.5v206q0 35 -26 35q-8 0 -25 -4z" />
    <glyph glyph-name="uni24E5" unicode="&#x24e5;" 
d="M977 380q0 -197 -140 -337t-337 -140t-337 140t-140 337q0 131 64.5 241t174 173t238.5 63t238.5 -63t174 -173t64.5 -241zM951 380q0 188 -132.5 319.5t-318.5 131.5q-122 0 -226 -60t-164.5 -164t-60.5 -227q0 -122 60.5 -226t164.5 -164.5t226 -60.5q186 0 318.5 132
t132.5 319zM708 517h-16q-29 0 -47 -40l-129 -327h-22l-143 317q-11 24 -21.5 35.5t-17.5 13t-20 1.5v26h181v-26q-12 0 -18.5 -0.5t-13 -6t-6.5 -15.5q0 -9 8 -28l91 -201l84 211q3 9 3 20q0 20 -28 20h-26v26h141v-26z" />
    <glyph glyph-name="uni24E6" unicode="&#x24e6;" 
d="M977 380q0 -197 -140 -337t-337 -140t-337 140t-140 337q0 131 64.5 241t174 173t238.5 63t238.5 -63t174 -173t64.5 -241zM951 380q0 188 -132.5 319.5t-318.5 131.5q-122 0 -226 -60t-164.5 -164t-60.5 -227q0 -122 60.5 -226t164.5 -164.5t226 -60.5q186 0 318.5 132
t132.5 319zM803 517h-29q-26 0 -39 -35l-121 -332h-16l-105 270l-98 -270h-16l-125 321q-8 21 -19 32t-18.5 12.5t-19.5 1.5v26h175v-26q-33 0 -33 -23q0 -15 6 -30l71 -182l63 175q-16 41 -27 50.5t-40 9.5v26h189v-26q-15 0 -22 -1t-14 -6.5t-7 -16.5q0 -10 4 -22l73 -189
l68 188q4 12 4 19q0 28 -27 28h-27v26h150v-26z" />
    <glyph glyph-name="uni24E7" unicode="&#x24e7;" 
d="M977 380q0 -197 -140 -337t-337 -140t-337 140t-140 337q0 131 64.5 241t174 173t238.5 63t238.5 -63t174 -173t64.5 -241zM951 380q0 188 -132.5 319.5t-318.5 131.5q-122 0 -226 -60t-164.5 -164t-60.5 -227q0 -122 60.5 -226t164.5 -164.5t226 -60.5q186 0 318.5 132
t132.5 319zM708 191h-211v26h17q10 0 18.5 6t8.5 15q0 10 -7 22l-56 80l-53 -71q-9 -12 -9 -25t6.5 -19t13 -7t19.5 -1v-26h-163v26h17q19 0 43.5 15t36.5 31l74 100l-93 134q-15 21 -28.5 32t-20.5 12.5t-19 1.5v26h199v-26q-13 0 -19 -0.5t-12.5 -5.5t-6.5 -15
q0 -13 7 -23l46 -65l47 63q9 13 9 27q0 19 -41 19v26h160v-26q-21 0 -32.5 -2t-33 -16.5t-42.5 -43.5l-52 -70l103 -149q10 -14 30 -29.5t44 -15.5v-26z" />
    <glyph glyph-name="uni24E8" unicode="&#x24e8;" 
d="M977 380q0 -197 -140 -337t-337 -140t-337 140t-140 337q0 131 64.5 241t174 173t238.5 63t238.5 -63t174 -173t64.5 -241zM951 380q0 188 -132.5 319.5t-318.5 131.5q-122 0 -226 -60t-164.5 -164t-60.5 -227q0 -122 60.5 -226t164.5 -164.5t226 -60.5q186 0 318.5 132
t132.5 319zM724 575q-20 0 -29.5 -2.5t-22 -16.5t-24.5 -43l-127 -316q-19 -47 -54.5 -76t-76.5 -29q-27 0 -45.5 16t-18.5 42q0 24 16 39.5t39 15.5q15 0 25.5 -6.5t14.5 -13.5t9 -21q4 -12 15 -12q31 0 61 78l-127 292q-16 37 -28.5 45t-41.5 8v26h201v-26h-21
q-26 0 -26 -25q0 -16 6 -28l80 -185l71 176q6 15 6 33q0 12 -9.5 20.5t-22.5 8.5h-29v26h159v-26z" />
    <glyph glyph-name="uni24E9" unicode="&#x24e9;" 
d="M500 857q129 0 238.5 -63t174 -173t64.5 -241q0 -197 -140 -337t-337 -140t-337 140t-140 337q0 131 64.5 241t174 173t238.5 63zM500 831q-122 0 -226 -60t-164.5 -164t-60.5 -227q0 -122 60.5 -226t164.5 -164.5t226 -60.5q186 0 318.5 132t132.5 319
q0 188 -132.5 319.5t-318.5 131.5zM342 456l41 113h285v-12l-234 -340h34q59 0 103.5 22t84.5 86l20 -11l-45 -123h-304v18l230 334h-47q-35 0 -59 -7t-40 -23t-24 -29t-21 -39z" />
    <glyph glyph-name="uni24EA" unicode="&#x24ea;" 
d="M977 380q0 -197 -140 -337t-337 -140t-337 140t-140 337q0 131 64.5 241t174 173t238.5 63t238.5 -63t174 -173t64.5 -241zM951 380q0 188 -132.5 319.5t-318.5 131.5q-122 0 -226 -60t-164.5 -164t-60.5 -227q0 -122 60.5 -226t164.5 -164.5t226 -60.5q186 0 318.5 132
t132.5 319zM676 380q0 -123 -48 -213t-128 -90t-128 90t-48 213t48 213t128 90q79 0 127.5 -89.5t48.5 -213.5zM576 380q0 22 -1 44.5t-3 57.5t-7.5 64t-13.5 56t-21 42.5t-30 15.5t-30 -15.5t-21 -42.5t-13.5 -56t-7.5 -64t-3 -57.5t-1 -44.5t1 -44.5t3 -57.5t7.5 -64
t13.5 -56t21 -42.5t30 -15.5t30 15.5t21 42.5t13.5 56t7.5 64t3 57.5t1 44.5z" />
    </font>
</defs>
</svg>
